<?xml version="1.0"?>
<svg width="1097" height="372" xmlns="http://www.w3.org/2000/svg" xmlns:svg="http://www.w3.org/2000/svg" version="1.1">
 <g class="layer">
  <title>Layer 1</title>
  <rect fill="#162836" height="372" id="svg_48" width="1097" x="0" y="0"/>
  <g id="svg_8" transform="matrix(0.666667, 0, 0, 0.666667, 249.394, 572.63)">
   <svg data-background-color="#162836" height="530" id="svg_49" preserveAspectRatio="xMidYMid meet" viewBox="0 0 396 140" width="1500" x="-244.5" xmlns="http://www.w3.org/2000/svg" xmlns:xlink="http://www.w3.org/1999/xlink" y="-847.5">
    <g id="svg_1" transform="matrix(1,0,0,1,0.24000000000003752,0.27862014776761157)">
     <g id="svg_15">
      <svg height="139.44" id="svg_50" viewBox="0 0 395.5199999999999 139.44275970446475" width="395.52">
       <g id="svg_22">
        <svg height="139.44" id="svg_51" viewBox="0 0 692.9496489006856 244.3032245624786" width="395.52">
         <g id="svg_27" transform="matrix(1,0,0,1,0,37.780851371578834)">
          <svg height="168.74" id="svg_52" viewBox="0 0 395.5199999999999 168.74152181932092" width="395.52">
           <g id="svg_23">
            <svg height="168.74" id="svg_28" viewBox="0 0 395.5199999999999 168.74152181932092" width="395.52">
             <g id="svg_32">
              <svg height="112.52" id="svg_53" viewBox="0 0 395.5199999999999 112.51974859411179" width="395.52">
               <g id="svg_34" transform="matrix(1,0,0,1,0,0)">
                <svg data-palette-color="#33e499" height="112.52" id="svg_54" viewBox="3.6 -35 151.13 43" width="395.52">
                 <path class="wordmark-text-0" d="m3.6,0l0,-35l8.7,0q4.55,0 7.05,2.3q2.5,2.3 2.5,6.75l0,0l0,16.9q0,4.45 -2.5,6.72q-2.5,2.28 -7.05,2.33l0,0l-8.7,0zm4.45,-3.4l4.25,0q2.3,0 3.73,-1.33q1.42,-1.32 1.42,-3.52l0,0l0,-18.5q0,-2.2 -1.42,-3.53q-1.43,-1.32 -3.73,-1.32l0,0l-4.25,0l0,28.2zm24.25,3.4q-1.8,0 -3.33,-0.9q-1.52,-0.9 -2.4,-2.45q-0.87,-1.55 -0.87,-3.5l0,0l0,-2.6q0,-2.35 1.17,-3.95q1.18,-1.6 2.93,-2.25l0,0l6.2,-2.3l0,-2.35q0,-1.2 -0.73,-1.98q-0.72,-0.77 -1.87,-0.77l0,0l-5.65,0l0,-2.95l6,0q2.75,0 4.37,1.62q1.63,1.63 1.63,4.43l0,0l0,19.95l-7.45,0zm0.35,-3.05l3.35,0l0,-11.75l-4.4,1.65q-1.3,0.5 -1.83,1.35q-0.52,0.85 -0.52,2.7l0,0l0,2.8q0,1.35 1,2.3q1,0.95 2.4,0.95l0,0zm12.6,3.05l0,-26l3.1,0l0.45,1.85l1.25,-0.6q1.6,-0.8 2.67,-1.2q1.08,-0.4 2.18,-0.4l0,0l0,2.95q-0.65,0 -1.75,0.37q-1.1,0.38 -3.9,1.73l0,0l0,21.3l-4,0zm17.29,0l-4,0l0,-35l4,0l0,19.6l7.75,-10.6l3.75,0l-7.4,10.6l7.75,15.4l-3.75,0l-6.35,-13.1l-1.75,2.35l0,10.75zm15.3,0l0,-3.3l5.45,0q2.85,0 4.13,-1.7q1.27,-1.7 1.27,-4.2l0,0q0,-1.95 -0.72,-3.38q-0.73,-1.42 -1.78,-2.37q-1.05,-0.95 -2.85,-2.2l0,0q-1.9,-1.3 -3.07,-2.38q-1.18,-1.07 -1.98,-2.72q-0.8,-1.65 -0.8,-3.95l0,0q0,-4 2.4,-6.4q2.4,-2.4 6.65,-2.4l0,0l4.05,0l0,3.3l-3.85,0q-2.4,0 -3.65,1.55q-1.25,1.55 -1.25,3.6l0,0q0,2 1.15,3.3q1.15,1.3 3.5,2.95l0,0q2.15,1.55 3.45,2.77q1.3,1.23 2.23,3.23q0.92,2 0.92,4.8l0,0q0,4.7 -2.67,7.1q-2.68,2.4 -7.33,2.4l0,0l-5.25,0zm26.35,0l-4.1,0l-4.75,-26l4,0l2.9,21.8l2.35,-15.15l5.1,0l2.35,15.15l2.9,-21.8l4,0l-4.75,26l-4.1,0l-2.95,-15.65l-2.95,15.65zm23.79,0q-1.79,0 -3.32,-0.9q-1.52,-0.9 -2.4,-2.45q-0.87,-1.55 -0.87,-3.5l0,0l0,-2.6q0,-2.35 1.17,-3.95q1.17,-1.6 2.92,-2.25l0,0l6.21,-2.3l0,-2.35q0,-1.2 -0.73,-1.98q-0.72,-0.77 -1.87,-0.77l0,0l-5.65,0l0,-2.95l6,0q2.75,0 4.37,1.62q1.63,1.63 1.63,4.43l0,0l0,19.95l-7.46,0zm0.36,-3.05l3.35,0l0,-11.75l-4.41,1.65q-1.3,0.5 -1.82,1.35q-0.52,0.85 -0.52,2.7l0,0l0,2.8q0,1.35 1,2.3q1,0.95 2.4,0.95l0,0zm14.69,11.05l0,-3l5.15,0q1.15,0 1.83,-0.77q0.67,-0.78 0.67,-1.98l0,0l0,-2.2l-4.15,0q-2.75,0 -4.65,-1.8q-1.9,-1.8 -1.9,-4.5l0,0l0,-13.45q0,-2.7 1.93,-4.5q1.92,-1.8 4.67,-1.8l0,0l8.15,0l0,27.9q0,2.8 -1.52,4.45q-1.53,1.65 -4.28,1.65l0,0l-5.9,0zm4.35,-10.95l3.35,0l0,-20.05l-3.35,0q-1.4,0 -2.4,0.95q-1,0.95 -1,2.35l0,0l0,13.45q0,1.4 1,2.35q1,0.95 2.4,0.95l0,0z" data-fill-palette-color="primary" fill="#33e499" id="svg_33" transform="matrix(1,0,0,1,0,0)"/>
                </svg>
               </g>
              </svg>
             </g>
             <g id="svg_36" transform="matrix(1,0,0,1,19.77600000000001,139.08296076321534)">
              <svg height="29.66" id="svg_55" viewBox="0 0 375.7439999999999 29.658561056105604" width="375.74">
               <g id="svg_38" transform="matrix(1,0,0,1,0,0)">
                <svg data-palette-color="#33e499" height="29.66" id="svg_56" viewBox="-1.81 -32.4 532.5699999999999 42.04" width="375.74">
                 <path class="slogan-text-1" d="m21.29,-8.3l0,0q-0.44,2 -1.61,3.62q-1.17,1.63 -2.82,2.8q-1.65,1.17 -3.58,1.81q-1.93,0.63 -3.88,0.63l0,0q-2.71,0 -4.72,-1q-2.02,-1 -2.92,-2.95l0,0l-0.71,3.39l-2.86,0l2.05,-9.69l2.86,0q-0.34,1.63 0.11,2.99q0.45,1.35 1.42,2.33q0.96,0.98 2.36,1.53q1.41,0.55 3.02,0.55l0,0q1.39,0 2.69,-0.41q1.29,-0.4 2.34,-1.15q1.05,-0.74 1.81,-1.81q0.75,-1.08 1.05,-2.45l0,0q0.36,-1.53 -0.09,-2.63q-0.45,-1.1 -1.43,-1.88q-0.97,-0.78 -2.28,-1.33q-1.31,-0.55 -2.65,-1.09l0,0q-1.61,-0.61 -3.19,-1.28q-1.57,-0.67 -2.74,-1.7q-1.17,-1.02 -1.7,-2.5q-0.52,-1.48 -0.06,-3.67l0,0q0.44,-1.96 1.59,-3.48q1.14,-1.53 2.72,-2.58q1.57,-1.05 3.45,-1.6q1.88,-0.55 3.79,-0.55l0,0q2.29,0 4.06,0.95q1.77,0.96 2.48,2.91l0,0l0.71,-3.32l2.93,0l-1.93,9.11l-2.95,0q0.29,-1.44 -0.04,-2.7q-0.33,-1.26 -1.15,-2.15q-0.82,-0.89 -2.04,-1.42q-1.22,-0.52 -2.68,-0.52l0,0q-1.3,0 -2.52,0.29q-1.22,0.29 -2.24,0.94q-1.03,0.65 -1.79,1.67q-0.75,1.03 -1.05,2.45l0,0q-0.24,1.24 0.2,2.12q0.44,0.88 1.34,1.55q0.91,0.67 2.16,1.22q1.26,0.55 2.6,1.11l0,0q1.64,0.64 3.27,1.42q1.64,0.78 2.81,1.88q1.17,1.1 1.75,2.7q0.57,1.59 0.06,3.89zm28.41,-14.45l3.5,0l-9.4,22.75l-3.91,0l-0.15,-16.7l-6.95,16.7l-3.89,0l0.15,-22.75l3.54,0l-0.54,18.21l7.4,-18.21l3.3,0l-0.2,18.21l7.15,-18.21zm3.74,16.6l0,0q0.44,-2.15 1.82,-3.6q1.38,-1.46 3.3,-2.3q1.93,-0.84 4.28,-1.22q2.34,-0.38 4.68,-0.38l0,0q0.91,0 1.62,0.03q0.7,0.02 1.35,0.07q0.65,0.05 1.27,0.12q0.62,0.08 1.43,0.17l0,0l0.34,-1.63q0.37,-1.66 -0.13,-2.74q-0.5,-1.07 -1.43,-1.69q-0.93,-0.63 -2.03,-0.88q-1.1,-0.26 -1.9,-0.26l0,0q-2.57,0 -4.84,0.68q-2.27,0.69 -4.37,1.84l0,0l-1,-2.52q2.35,-1.24 5.08,-2.04q2.73,-0.79 5.79,-0.79l0,0q1.83,0 3.54,0.48q1.71,0.47 2.9,1.46q1.2,0.99 1.7,2.6q0.5,1.61 0.03,3.86l0,0l-3.14,14.89l-3.35,0l0.81,-3.81q-1.15,1.1 -2.43,1.93q-1.28,0.83 -2.6,1.36q-1.32,0.52 -2.63,0.8q-1.3,0.28 -2.4,0.28l0,0q-4.49,0 -6.45,-1.73q-1.95,-1.74 -1.24,-4.98zm8.3,3.86l0,0q2.1,0 3.92,-0.63q1.82,-0.62 3.17,-1.55q1.36,-0.93 2.23,-1.98q0.88,-1.05 1.08,-1.9l0,0l0.44,-2.15q-1.59,-0.24 -3.09,-0.27q-1.5,-0.02 -2.6,-0.02l0,0q-1.81,0 -3.53,0.24q-1.72,0.25 -3.07,0.8q-1.36,0.55 -2.31,1.42q-0.95,0.88 -1.2,2.18l0,0q-0.34,1.44 0.81,2.65q1.15,1.21 4.15,1.21zm44.09,-20.46l-4.76,22.51q-0.49,2.34 -1.69,4.17q-1.19,1.83 -2.93,3.1q-1.73,1.27 -3.85,1.94q-2.13,0.67 -4.52,0.67l0,0q-3.4,0 -5.49,-1.27q-2.1,-1.27 -3.25,-3.66l0,0l2.63,-1.8q0.71,1.58 2.46,2.66q1.74,1.07 4.31,1.07l0,0q3.44,0 5.83,-1.74q2.4,-1.75 3.1,-5.05l0,0l0.56,-2.44q-3.61,2.64 -7.39,2.64l0,0q-5.37,0 -7.77,-3.05q-2.39,-3.05 -1.24,-8.35l0,0q0.54,-2.59 1.79,-4.78q1.26,-2.18 3.08,-3.78q1.82,-1.6 4.15,-2.49q2.33,-0.89 4.97,-0.89l0,0q1.85,0 3.45,0.65q1.6,0.64 2.75,1.94l0,0l0.46,-2.05l3.35,0zm-6.96,16.89l2.51,-11.6q-1.14,-1.58 -2.72,-2.29q-1.57,-0.71 -3.48,-0.71l0,0q-2,0 -3.67,0.71q-1.67,0.71 -2.93,1.93q-1.26,1.22 -2.13,2.89q-0.86,1.67 -1.28,3.58l0,0q-0.85,3.9 0.67,6.22q1.53,2.32 5.58,2.32l0,0q1.91,0 3.81,-0.72q1.91,-0.72 3.64,-2.33l0,0zm34.25,-16.89l-4.76,22.51q-0.49,2.34 -1.69,4.17q-1.19,1.83 -2.93,3.1q-1.73,1.27 -3.85,1.94q-2.13,0.67 -4.52,0.67l0,0q-3.39,0 -5.49,-1.27q-2.1,-1.27 -3.25,-3.66l0,0l2.64,-1.8q0.71,1.58 2.45,2.66q1.75,1.07 4.31,1.07l0,0q3.44,0 5.84,-1.74q2.39,-1.75 3.1,-5.05l0,0l0.56,-2.44q-3.62,2.64 -7.4,2.64l0,0q-5.37,0 -7.76,-3.05q-2.4,-3.05 -1.25,-8.35l0,0q0.54,-2.59 1.8,-4.78q1.25,-2.18 3.07,-3.78q1.82,-1.6 4.15,-2.49q2.33,-0.89 4.97,-0.89l0,0q1.86,0 3.45,0.65q1.6,0.64 2.75,1.94l0,0l0.47,-2.05l3.34,0zm-6.96,16.89l2.52,-11.6q-1.15,-1.58 -2.73,-2.29q-1.57,-0.71 -3.47,-0.71l0,0q-2.01,0 -3.68,0.71q-1.67,0.71 -2.93,1.93q-1.26,1.22 -2.12,2.89q-0.87,1.67 -1.28,3.58l0,0q-0.86,3.9 0.67,6.22q1.52,2.32 5.58,2.32l0,0q1.9,0 3.8,-0.72q1.91,-0.72 3.64,-2.33l0,0zm33.06,-4.35l-19.66,0q-0.39,3.62 1.41,5.77q1.79,2.15 5.45,2.15l0,0q2.54,0 4.76,-1.05q2.23,-1.05 3.59,-2.62l0,0l1.98,1.61q-2.2,2.4 -4.85,3.65q-2.64,1.26 -6.09,1.26l0,0q-2.66,0 -4.65,-0.88q-1.99,-0.88 -3.27,-2.45q-1.28,-1.58 -1.71,-3.75q-0.43,-2.17 0.18,-4.83l0,0q0.54,-2.59 1.8,-4.78q1.26,-2.18 3.1,-3.78q1.84,-1.6 4.2,-2.49q2.35,-0.89 4.99,-0.89l0,0q2.91,0 4.86,0.98q1.95,0.97 3.05,2.69q1.1,1.72 1.27,4.12q0.17,2.39 -0.41,5.29l0,0zm-19,-2.85l16.04,0q0.25,-3.74 -1.52,-5.57q-1.77,-1.83 -4.92,-1.83l0,0q-1.61,0 -3.09,0.53q-1.48,0.52 -2.72,1.5q-1.25,0.97 -2.25,2.35q-1,1.38 -1.54,3.02l0,0zm48.44,-9.23l-1.66,2.73q-1.64,-0.9 -4.15,-0.9l0,0q-2.05,0 -3.82,0.88q-1.77,0.88 -3.2,2.31q-1.43,1.43 -2.43,3.27q-1,1.84 -1.39,3.79l0,0l-1.57,7.35l5.16,0l-0.59,2.86l-13.65,0l0.59,-2.86l5.15,0l3.61,-17.04l-5.15,0l0.59,-2.85l8.49,0l-1.19,5.71q3.66,-6.25 10.06,-6.25l0,0q1.75,0 2.97,0.22q1.22,0.22 2.18,0.78l0,0zm10.39,17.75l4.5,0l-9.6,13.65l-2.37,0l7.47,-13.65zm69.34,-6.81l0,0q-0.57,2.61 -1.84,4.81q-1.26,2.19 -3.1,3.77q-1.83,1.57 -4.15,2.45q-2.32,0.88 -4.98,0.88l0,0q-1.83,0 -3.38,-0.66q-1.55,-0.66 -2.77,-1.95l0,0l-0.39,2.05l-3.34,0l6.73,-31.86l3.37,0l-2.41,11.21q1.75,-1.25 3.6,-1.95q1.84,-0.69 3.7,-0.69l0,0q2.66,0 4.57,0.89q1.92,0.89 3.1,2.47q1.19,1.57 1.51,3.78q0.31,2.21 -0.22,4.8zm-3.4,0l0,0q0.39,-1.96 0.25,-3.6q-0.15,-1.65 -0.93,-2.87q-0.78,-1.22 -2.15,-1.93q-1.37,-0.71 -3.37,-0.71l0,0q-3.86,0 -7.35,3.05l0,0l-2.56,12.16q1.1,1.59 2.62,2.27q1.53,0.69 3.43,0.69l0,0q2.01,0 3.65,-0.71q1.65,-0.71 2.96,-1.93q1.3,-1.22 2.17,-2.87q0.87,-1.65 1.28,-3.55zm8.54,2.66l2.98,-14.06l3.37,0l-3,14.06q-0.61,3.05 0.34,4.72q0.95,1.68 3.91,1.68l0,0q1.85,0 3.55,-0.86q1.7,-0.85 3.05,-2.28q1.36,-1.43 2.27,-3.27q0.92,-1.85 1.38,-3.85l0,0l2.15,-10.2l3.34,0l-4.81,22.75l-3.34,0l1.2,-5.69q-3.74,6.25 -9.94,6.25l0,0q-8.4,0 -6.45,-9.25l0,0zm46.14,0.83l2.64,0.61q-1.15,3.59 -4.01,5.7q-2.87,2.11 -6.54,2.11l0,0q-2,0 -3.5,-0.66q-1.5,-0.66 -2.42,-1.83q-0.91,-1.17 -1.22,-2.82q-0.3,-1.65 0.09,-3.6l0,0l2.46,-11.55l-5.15,0l0.59,-2.85l5.15,0l1.95,-9.11l3.35,0l-1.95,9.11l9.71,0l-0.61,2.85l-9.69,0l-2.44,11.55q-0.27,1.25 -0.11,2.34q0.16,1.1 0.71,1.93q0.55,0.83 1.46,1.31q0.92,0.48 2.23,0.48l0,0q2.5,0 4.5,-1.56q2,-1.55 2.8,-4.01l0,0zm61.03,-24l-6.76,31.86l-3.34,0l0.41,-2.1q-1.71,1.29 -3.59,1.98q-1.88,0.68 -3.66,0.68l0,0q-2.71,0 -4.66,-0.88q-1.95,-0.88 -3.1,-2.45q-1.15,-1.58 -1.48,-3.77q-0.33,-2.2 0.23,-4.81l0,0q0.54,-2.59 1.82,-4.8q1.28,-2.21 3.08,-3.78q1.79,-1.58 4.15,-2.47q2.35,-0.89 5.04,-0.89l0,0q1.81,0 3.38,0.65q1.58,0.64 2.72,1.94l0,0l1.81,-8.3l-4.54,0l0.58,-2.86l7.91,0zm-9,26.56l2.61,-12.16q-1.15,-1.58 -2.7,-2.29q-1.55,-0.71 -3.45,-0.71l0,0q-2.01,0 -3.68,0.71q-1.67,0.71 -2.95,1.93q-1.28,1.22 -2.15,2.87q-0.87,1.64 -1.28,3.6l0,0q-0.44,1.95 -0.27,3.6q0.17,1.65 0.95,2.87q0.78,1.22 2.15,1.93q1.37,0.7 3.37,0.7l0,0q3.86,0 7.4,-3.05l0,0zm9.25,-0.85l0,0q0.44,-2.15 1.82,-3.6q1.37,-1.46 3.3,-2.3q1.93,-0.84 4.28,-1.22q2.34,-0.38 4.68,-0.38l0,0q0.91,0 1.61,0.03q0.71,0.02 1.36,0.07q0.65,0.05 1.27,0.12q0.62,0.08 1.43,0.17l0,0l0.34,-1.63q0.37,-1.66 -0.14,-2.74q-0.5,-1.07 -1.42,-1.69q-0.93,-0.63 -2.03,-0.88q-1.1,-0.26 -1.9,-0.26l0,0q-2.57,0 -4.84,0.68q-2.27,0.69 -4.37,1.84l0,0l-1,-2.52q2.34,-1.24 5.08,-2.04q2.73,-0.79 5.79,-0.79l0,0q1.83,0 3.54,0.48q1.7,0.47 2.9,1.46q1.2,0.99 1.7,2.6q0.5,1.61 0.03,3.86l0,0l-3.15,14.89l-3.34,0l0.81,-3.81q-1.15,1.1 -2.43,1.93q-1.29,0.83 -2.6,1.36q-1.32,0.52 -2.63,0.8q-1.3,0.28 -2.4,0.28l0,0q-4.5,0 -6.45,-1.73q-1.95,-1.74 -1.24,-4.98zm8.3,3.86l0,0q2.1,0 3.92,-0.63q1.81,-0.62 3.17,-1.55q1.35,-0.93 2.23,-1.98q0.88,-1.05 1.08,-1.9l0,0l0.44,-2.15q-1.59,-0.24 -3.09,-0.27q-1.5,-0.02 -2.6,-0.02l0,0q-1.81,0 -3.53,0.24q-1.72,0.25 -3.08,0.8q-1.35,0.55 -2.3,1.42q-0.95,0.88 -1.2,2.18l0,0q-0.34,1.44 0.81,2.65q1.14,1.21 4.15,1.21zm45.04,-20l-1.66,2.73q-1.64,-0.9 -4.15,-0.9l0,0q-2.05,0 -3.82,0.88q-1.77,0.88 -3.2,2.31q-1.43,1.43 -2.43,3.27q-1,1.84 -1.39,3.79l0,0l-1.56,7.35l5.15,0l-0.59,2.86l-13.65,0l0.59,-2.86l5.15,0l3.61,-17.04l-5.15,0l0.59,-2.85l8.5,0l-1.2,5.71q3.66,-6.25 10.06,-6.25l0,0q1.76,0 2.98,0.22q1.22,0.22 2.17,0.78l0,0zm13.5,9.99l9.18,12.3l-4.74,0l-7.15,-10.21l-4.91,3.76l-1.34,6.45l-3.35,0l6.74,-31.86l3.37,0l-4.57,21.36l15.56,-12.25l4.81,0l-13.6,10.45zm38.94,2.09l-19.66,0q-0.39,3.62 1.41,5.77q1.79,2.15 5.45,2.15l0,0q2.54,0 4.76,-1.05q2.22,-1.05 3.59,-2.62l0,0l1.98,1.61q-2.2,2.4 -4.85,3.65q-2.65,1.26 -6.09,1.26l0,0q-2.66,0 -4.65,-0.88q-1.99,-0.88 -3.27,-2.45q-1.28,-1.58 -1.71,-3.75q-0.43,-2.17 0.18,-4.83l0,0q0.54,-2.59 1.8,-4.78q1.26,-2.18 3.1,-3.78q1.84,-1.6 4.2,-2.49q2.35,-0.89 4.99,-0.89l0,0q2.91,0 4.86,0.98q1.95,0.97 3.05,2.69q1.1,1.72 1.27,4.12q0.17,2.39 -0.41,5.29l0,0zm-19,-2.85l16.04,0q0.25,-3.74 -1.52,-5.57q-1.77,-1.83 -4.92,-1.83l0,0q-1.62,0 -3.09,0.53q-1.48,0.52 -2.72,1.5q-1.25,0.97 -2.25,2.35q-1,1.38 -1.54,3.02l0,0zm48.44,-9.23l-1.66,2.73q-1.64,-0.9 -4.15,-0.9l0,0q-2.06,0 -3.83,0.88q-1.77,0.88 -3.19,2.31q-1.43,1.43 -2.43,3.27q-1,1.84 -1.39,3.79l0,0l-1.57,7.35l5.15,0l-0.58,2.86l-13.65,0l0.59,-2.86l5.15,0l3.61,-17.04l-5.15,0l0.59,-2.85l8.49,0l-1.19,5.71q3.66,-6.25 10.05,-6.25l0,0q1.76,0 2.98,0.22q1.22,0.22 2.18,0.78l0,0zm14.59,17.75l-0.95,4.54l-4.56,0l0.95,-4.54l4.56,0z" data-fill-palette-color="secondary" fill="#33e499" id="svg_37" transform="matrix(1,0,0,1,0,0)"/>
                </svg>
               </g>
              </svg>
             </g>
            </svg>
           </g>
          </svg>
         </g>
         <g id="svg_41" transform="matrix(1,0,0,1,448.646424338207,0)">
          <svg height="244.3" id="svg_57" viewBox="0 0 244.3032245624786 244.3032245624786" width="244.3">
           <g id="svg_42">
            <svg id="svg_58"/>
           </g>
           <g id="svg_39">
            <svg height="244.3" id="svg_59" viewBox="0 0 244.3032245624786 244.3032245624786" width="244.3">
             <g id="svg_60">
              <path d="m0,122.15c0,-67.46 54.69,-122.15 122.15,-122.15c67.46,0 122.15,54.69 122.15,122.15c0,67.46 -54.69,122.15 -122.15,122.15c-67.46,0 -122.15,-54.69 -122.15,-122.15zm122.15,112.01c61.86,0 112.01,-50.15 112.01,-112.01c0,-61.86 -50.15,-112 -112.01,-112c-61.86,0 -112,50.14 -112,112c0,61.86 50.14,112.01 112,112.01z" data-fill-palette-color="accent" fill="#33e499" id="svg_61" stroke="transparent"/>
              <ellipse cx="122.15" cy="122.15" data-fill-palette-color="accent" fill="#33e499" id="svg_62" rx="120.93" ry="120.93" stroke="transparent" stroke-width="0"/>
             </g>
             <g id="svg_45" transform="matrix(1,0,0,1,62.82098676952678,52.28580529036053)">
              <svg height="139.73" id="svg_63" viewBox="0 0 118.66125102342502 139.73161398175753" width="118.66">
               <g id="svg_47">
                <svg class="icon-dxe-0" data-fill-palette-color="quaternary" enable-background="new 0 0 100 100" height="139.73" id="svg_46" version="1.1" viewBox="25 14 61.143 72" width="118.66" x="0" xml:space="preserve" xmlns="http://www.w3.org/2000/svg" xmlns:xlink="http://www.w3.org/1999/xlink" y="0">
                 <path d="m72,36.38l14.14,-14.14l-4.24,-4.24l-9.9,9.9l0,-13.9l-6,0l0,6.91c-4.01,-4.25 -9.69,-6.91 -16,-6.91c-12.15,0 -22,9.85 -22,22l0,19l-3,0l0,20l39,11l11,-11l0,-20l-3,0l0,-18.62zm-41,14.62l19,-13l19,13l-38,0z" data-fill-palette-color="quaternary" fill="#000000" id="svg_64"/>
                 <polygon data-fill-palette-color="quaternary" fill="#000000" id="svg_65" points="41.699,46.814 38,49 45.398,49 "/>
                 <polygon data-fill-palette-color="quaternary" fill="#000000" id="svg_66" points="58.301,46.814 54.602,49 62,49 "/>
                </svg>
               </g>
              </svg>
             </g>
            </svg>
           </g>
          </svg>
         </g>
        </svg>
       </g>

      </svg>
     </g>
     <rect fill="none" height="139.44" id="svg_67" width="395.52"/>
    </g>
   </svg>
  </g>
 </g>
</svg>