<svg xmlns="http://www.w3.org/2000/svg" version="1.1" xmlns:xlink="http://www.w3.org/1999/xlink" xmlns:svgjs="http://svgjs.dev/svgjs" width="1500" height="530" viewBox="0 0 1500 530"><g transform="matrix(1,0,0,1,-0.9090909090911055,-1.0547762736916866)"><svg viewBox="0 0 396 140" data-background-color="#162836" preserveAspectRatio="xMidYMid meet" height="530" width="1500" xmlns="http://www.w3.org/2000/svg" xmlns:xlink="http://www.w3.org/1999/xlink"><g id="tight-bounds" transform="matrix(1,0,0,1,0.24000000000003752,0.27862014776761157)"><svg viewBox="0 0 395.5199999999999 139.44275970446475" height="139.44275970446475" width="395.5199999999999"><g><svg viewBox="0 0 692.9496489006856 244.3032245624786" height="139.44275970446475" width="395.5199999999999"><g transform="matrix(1,0,0,1,0,37.780851371578834)"><svg viewBox="0 0 395.5199999999999 168.74152181932092" height="168.74152181932092" width="395.5199999999999"><g id="textblocktransform"><svg viewBox="0 0 395.5199999999999 168.74152181932092" height="168.74152181932092" width="395.5199999999999" id="textblock"><g><svg viewBox="0 0 395.5199999999999 112.51974859411179" height="112.51974859411179" width="395.5199999999999"><g transform="matrix(1,0,0,1,0,0)"><svg width="395.5199999999999" viewBox="3.6 -35 151.13 43" height="112.51974859411179" data-palette-color="#33e499"><path d="M3.6 0L3.6-35 12.3-35Q16.85-35 19.35-32.7 21.85-30.4 21.85-25.95L21.85-25.95 21.85-9.05Q21.85-4.6 19.35-2.33 16.85-0.05 12.3 0L12.3 0 3.6 0ZM8.05-3.4L12.3-3.4Q14.6-3.4 16.03-4.73 17.45-6.05 17.45-8.25L17.45-8.25 17.45-26.75Q17.45-28.95 16.03-30.28 14.6-31.6 12.3-31.6L12.3-31.6 8.05-31.6 8.05-3.4ZM32.3 0Q30.5 0 28.97-0.9 27.45-1.8 26.57-3.35 25.7-4.9 25.7-6.85L25.7-6.85 25.7-9.45Q25.7-11.8 26.87-13.4 28.05-15 29.8-15.65L29.8-15.65 36-17.95 36-20.3Q36-21.5 35.27-22.28 34.55-23.05 33.4-23.05L33.4-23.05 27.75-23.05 27.75-26 33.75-26Q36.5-26 38.12-24.38 39.75-22.75 39.75-19.95L39.75-19.95 39.75 0 32.3 0ZM32.65-3.05L36-3.05 36-14.8 31.6-13.15Q30.3-12.65 29.77-11.8 29.25-10.95 29.25-9.1L29.25-9.1 29.25-6.3Q29.25-4.95 30.25-4 31.25-3.05 32.65-3.05L32.65-3.05ZM45.25 0L45.25-26 48.35-26 48.8-24.15 50.05-24.75Q51.65-25.55 52.72-25.95 53.8-26.35 54.9-26.35L54.9-26.35 54.9-23.4Q54.25-23.4 53.15-23.03 52.05-22.65 49.25-21.3L49.25-21.3 49.25 0 45.25 0ZM62.54 0L58.54 0 58.54-35 62.54-35 62.54-15.4 70.29-26 74.04-26 66.64-15.4 74.39 0 70.64 0 64.29-13.1 62.54-10.75 62.54 0ZM77.84 0L77.84-3.3 83.29-3.3Q86.14-3.3 87.42-5 88.69-6.7 88.69-9.2L88.69-9.2Q88.69-11.15 87.97-12.58 87.24-14 86.19-14.95 85.14-15.9 83.34-17.15L83.34-17.15Q81.44-18.45 80.27-19.53 79.09-20.6 78.29-22.25 77.49-23.9 77.49-26.2L77.49-26.2Q77.49-30.2 79.89-32.6 82.29-35 86.54-35L86.54-35 90.59-35 90.59-31.7 86.74-31.7Q84.34-31.7 83.09-30.15 81.84-28.6 81.84-26.55L81.84-26.55Q81.84-24.55 82.99-23.25 84.14-21.95 86.49-20.3L86.49-20.3Q88.64-18.75 89.94-17.53 91.24-16.3 92.17-14.3 93.09-12.3 93.09-9.5L93.09-9.5Q93.09-4.8 90.42-2.4 87.74 0 83.09 0L83.09 0 77.84 0ZM104.19 0L100.09 0 95.34-26 99.34-26 102.24-4.2 104.59-19.35 109.69-19.35 112.04-4.2 114.94-26 118.94-26 114.19 0 110.09 0 107.14-15.65 104.19 0ZM127.98 0Q126.19 0 124.66-0.9 123.14-1.8 122.26-3.35 121.39-4.9 121.39-6.85L121.39-6.85 121.39-9.45Q121.39-11.8 122.56-13.4 123.73-15 125.48-15.65L125.48-15.65 131.69-17.95 131.69-20.3Q131.69-21.5 130.96-22.28 130.24-23.05 129.09-23.05L129.09-23.05 123.44-23.05 123.44-26 129.44-26Q132.19-26 133.81-24.38 135.44-22.75 135.44-19.95L135.44-19.95 135.44 0 127.98 0ZM128.34-3.05L131.69-3.05 131.69-14.8 127.28-13.15Q125.98-12.65 125.46-11.8 124.94-10.95 124.94-9.1L124.94-9.1 124.94-6.3Q124.94-4.95 125.94-4 126.94-3.05 128.34-3.05L128.34-3.05ZM143.03 8L143.03 5 148.18 5Q149.33 5 150.01 4.23 150.68 3.45 150.68 2.25L150.68 2.25 150.68 0.05 146.53 0.05Q143.78 0.05 141.88-1.75 139.98-3.55 139.98-6.25L139.98-6.25 139.98-19.7Q139.98-22.4 141.91-24.2 143.83-26 146.58-26L146.58-26 154.73-26 154.73 1.9Q154.73 4.7 153.21 6.35 151.68 8 148.93 8L148.93 8 143.03 8ZM147.38-2.95L150.73-2.95 150.73-23 147.38-23Q145.98-23 144.98-22.05 143.98-21.1 143.98-19.7L143.98-19.7 143.98-6.25Q143.98-4.85 144.98-3.9 145.98-2.95 147.38-2.95L147.38-2.95Z" opacity="1" transform="matrix(1,0,0,1,0,0)" fill="#33e499" class="wordmark-text-0" data-fill-palette-color="primary" id="text-0"></path></svg></g></svg></g><g transform="matrix(1,0,0,1,19.77600000000001,139.08296076321534)"><svg viewBox="0 0 375.7439999999999 29.658561056105604" height="29.658561056105604" width="375.7439999999999"><g transform="matrix(1,0,0,1,0,0)"><svg width="375.7439999999999" viewBox="-1.81 -32.4 532.5699999999999 42.04" height="29.658561056105604" data-palette-color="#33e499"><path d="M21.29-8.3L21.29-8.3Q20.85-6.3 19.68-4.68 18.51-3.05 16.86-1.88 15.21-0.71 13.28-0.07 11.35 0.56 9.4 0.56L9.4 0.56Q6.69 0.56 4.68-0.44 2.66-1.44 1.76-3.39L1.76-3.39 1.05 0-1.81 0 0.24-9.69 3.1-9.69Q2.76-8.06 3.21-6.7 3.66-5.35 4.63-4.37 5.59-3.39 6.99-2.84 8.4-2.29 10.01-2.29L10.01-2.29Q11.4-2.29 12.7-2.7 13.99-3.1 15.04-3.85 16.09-4.59 16.85-5.66 17.6-6.74 17.9-8.11L17.9-8.11Q18.26-9.64 17.81-10.74 17.36-11.84 16.38-12.62 15.41-13.4 14.1-13.95 12.79-14.5 11.45-15.04L11.45-15.04Q9.84-15.65 8.26-16.32 6.69-16.99 5.52-18.02 4.35-19.04 3.82-20.52 3.3-22 3.76-24.19L3.76-24.19Q4.2-26.15 5.35-27.67 6.49-29.2 8.07-30.25 9.64-31.3 11.52-31.85 13.4-32.4 15.31-32.4L15.31-32.4Q17.6-32.4 19.37-31.45 21.14-30.49 21.85-28.54L21.85-28.54 22.56-31.86 25.49-31.86 23.56-22.75 20.61-22.75Q20.9-24.19 20.57-25.45 20.24-26.71 19.42-27.6 18.6-28.49 17.38-29.02 16.16-29.54 14.7-29.54L14.7-29.54Q13.4-29.54 12.18-29.25 10.96-28.96 9.94-28.31 8.91-27.66 8.15-26.64 7.4-25.61 7.1-24.19L7.1-24.19Q6.86-22.95 7.3-22.07 7.74-21.19 8.64-20.52 9.55-19.85 10.8-19.3 12.06-18.75 13.4-18.19L13.4-18.19Q15.04-17.55 16.67-16.77 18.31-15.99 19.48-14.89 20.65-13.79 21.23-12.19 21.8-10.6 21.29-8.3ZM49.7-22.75L53.2-22.75 43.8 0 39.89 0 39.74-16.7 32.79 0 28.9 0 29.05-22.75 32.59-22.75 32.05-4.54 39.45-22.75 42.75-22.75 42.55-4.54 49.7-22.75ZM53.44-6.15L53.44-6.15Q53.88-8.3 55.26-9.75 56.64-11.21 58.56-12.05 60.49-12.89 62.84-13.27 65.18-13.65 67.52-13.65L67.52-13.65Q68.43-13.65 69.14-13.62 69.84-13.6 70.49-13.55 71.14-13.5 71.76-13.43 72.38-13.35 73.19-13.26L73.19-13.26 73.53-14.89Q73.9-16.55 73.4-17.63 72.9-18.7 71.97-19.32 71.04-19.95 69.94-20.2 68.84-20.46 68.04-20.46L68.04-20.46Q65.47-20.46 63.2-19.78 60.93-19.09 58.83-17.94L58.83-17.94 57.83-20.46Q60.18-21.7 62.91-22.5 65.64-23.29 68.7-23.29L68.7-23.29Q70.53-23.29 72.24-22.81 73.95-22.34 75.14-21.35 76.34-20.36 76.84-18.75 77.34-17.14 76.87-14.89L76.87-14.89 73.73 0 70.38 0 71.19-3.81Q70.04-2.71 68.76-1.88 67.48-1.05 66.16-0.52 64.84 0 63.53 0.28 62.23 0.56 61.13 0.56L61.13 0.56Q56.64 0.56 54.68-1.17 52.73-2.91 53.44-6.15ZM61.74-2.29L61.74-2.29Q63.84-2.29 65.66-2.92 67.48-3.54 68.83-4.47 70.19-5.4 71.06-6.45 71.94-7.5 72.14-8.35L72.14-8.35 72.58-10.5Q70.99-10.74 69.49-10.77 67.99-10.79 66.89-10.79L66.89-10.79Q65.08-10.79 63.36-10.55 61.64-10.3 60.29-9.75 58.93-9.2 57.98-8.33 57.03-7.45 56.78-6.15L56.78-6.15Q56.44-4.71 57.59-3.5 58.74-2.29 61.74-2.29ZM105.83-22.75L101.07-0.24Q100.58 2.1 99.38 3.93 98.19 5.76 96.45 7.03 94.72 8.3 92.6 8.97 90.47 9.64 88.08 9.64L88.08 9.64Q84.68 9.64 82.59 8.37 80.49 7.1 79.34 4.71L79.34 4.71 81.97 2.91Q82.68 4.49 84.43 5.57 86.17 6.64 88.74 6.64L88.74 6.64Q92.18 6.64 94.57 4.9 96.97 3.15 97.67-0.15L97.67-0.15 98.23-2.59Q94.62 0.05 90.84 0.05L90.84 0.05Q85.47 0.05 83.07-3 80.68-6.05 81.83-11.35L81.83-11.35Q82.37-13.94 83.62-16.13 84.88-18.31 86.7-19.91 88.52-21.51 90.85-22.4 93.18-23.29 95.82-23.29L95.82-23.29Q97.67-23.29 99.27-22.64 100.87-22 102.02-20.7L102.02-20.7 102.48-22.75 105.83-22.75ZM98.87-5.86L101.38-17.46Q100.24-19.04 98.66-19.75 97.09-20.46 95.18-20.46L95.18-20.46Q93.18-20.46 91.51-19.75 89.84-19.04 88.58-17.82 87.32-16.6 86.45-14.93 85.59-13.26 85.17-11.35L85.17-11.35Q84.32-7.45 85.84-5.13 87.37-2.81 91.42-2.81L91.42-2.81Q93.33-2.81 95.23-3.53 97.14-4.25 98.87-5.86L98.87-5.86ZM133.12-22.75L128.36-0.24Q127.87 2.1 126.67 3.93 125.48 5.76 123.74 7.03 122.01 8.3 119.89 8.97 117.76 9.64 115.37 9.64L115.37 9.64Q111.98 9.64 109.88 8.37 107.78 7.1 106.63 4.71L106.63 4.71 109.27 2.91Q109.98 4.49 111.72 5.57 113.47 6.64 116.03 6.64L116.03 6.64Q119.47 6.64 121.87 4.9 124.26 3.15 124.97-0.15L124.97-0.15 125.53-2.59Q121.91 0.05 118.13 0.05L118.13 0.05Q112.76 0.05 110.37-3 107.97-6.05 109.12-11.35L109.12-11.35Q109.66-13.94 110.92-16.13 112.17-18.31 113.99-19.91 115.81-21.51 118.14-22.4 120.47-23.29 123.11-23.29L123.11-23.29Q124.97-23.29 126.56-22.64 128.16-22 129.31-20.7L129.31-20.7 129.78-22.75 133.12-22.75ZM126.16-5.86L128.68-17.46Q127.53-19.04 125.95-19.75 124.38-20.46 122.48-20.46L122.48-20.46Q120.47-20.46 118.8-19.75 117.13-19.04 115.87-17.82 114.61-16.6 113.75-14.93 112.88-13.26 112.47-11.35L112.47-11.35Q111.61-7.45 113.14-5.13 114.66-2.81 118.72-2.81L118.72-2.81Q120.62-2.81 122.52-3.53 124.43-4.25 126.16-5.86L126.16-5.86ZM159.22-10.21L139.56-10.21Q139.17-6.59 140.97-4.44 142.76-2.29 146.42-2.29L146.42-2.29Q148.96-2.29 151.18-3.34 153.41-4.39 154.77-5.96L154.77-5.96 156.75-4.35Q154.55-1.95 151.9-0.7 149.26 0.56 145.81 0.56L145.81 0.56Q143.15 0.56 141.16-0.32 139.17-1.2 137.89-2.77 136.61-4.35 136.18-6.52 135.75-8.69 136.36-11.35L136.36-11.35Q136.9-13.94 138.16-16.13 139.42-18.31 141.26-19.91 143.1-21.51 145.46-22.4 147.81-23.29 150.45-23.29L150.45-23.29Q153.36-23.29 155.31-22.31 157.26-21.34 158.36-19.62 159.46-17.9 159.63-15.5 159.8-13.11 159.22-10.21L159.22-10.21ZM140.22-13.06L156.26-13.06Q156.51-16.8 154.74-18.63 152.97-20.46 149.82-20.46L149.82-20.46Q148.21-20.46 146.73-19.93 145.25-19.41 144.01-18.43 142.76-17.46 141.76-16.08 140.76-14.7 140.22-13.06L140.22-13.06ZM188.66-22.29L187-19.56Q185.36-20.46 182.85-20.46L182.85-20.46Q180.8-20.46 179.03-19.58 177.26-18.7 175.83-17.27 174.4-15.84 173.4-14 172.4-12.16 172.01-10.21L172.01-10.21 170.44-2.86 175.6-2.86 175.01 0 161.36 0 161.95-2.86 167.1-2.86 170.71-19.9 165.56-19.9 166.15-22.75 174.64-22.75 173.45-17.04Q177.11-23.29 183.51-23.29L183.51-23.29Q185.26-23.29 186.48-23.07 187.7-22.85 188.66-22.29L188.66-22.29ZM199.05-4.54L203.55-4.54 193.95 9.11 191.58 9.11 199.05-4.54ZM268.39-11.35L268.39-11.35Q267.82-8.74 266.55-6.54 265.29-4.35 263.45-2.77 261.62-1.2 259.3-0.32 256.98 0.56 254.32 0.56L254.32 0.56Q252.49 0.56 250.94-0.1 249.39-0.76 248.17-2.05L248.17-2.05 247.78 0 244.44 0 251.17-31.86 254.54-31.86 252.13-20.65Q253.88-21.9 255.73-22.6 257.57-23.29 259.43-23.29L259.43-23.29Q262.09-23.29 264-22.4 265.92-21.51 267.1-19.93 268.29-18.36 268.61-16.15 268.92-13.94 268.39-11.35ZM264.99-11.35L264.99-11.35Q265.38-13.31 265.24-14.95 265.09-16.6 264.31-17.82 263.53-19.04 262.16-19.75 260.79-20.46 258.79-20.46L258.79-20.46Q254.93-20.46 251.44-17.41L251.44-17.41 248.88-5.25Q249.98-3.66 251.5-2.98 253.03-2.29 254.93-2.29L254.93-2.29Q256.94-2.29 258.58-3 260.23-3.71 261.54-4.93 262.84-6.15 263.71-7.8 264.58-9.45 264.99-11.35ZM273.53-8.69L276.51-22.75 279.88-22.75 276.88-8.69Q276.27-5.64 277.22-3.97 278.17-2.29 281.13-2.29L281.13-2.29Q282.98-2.29 284.68-3.15 286.38-4 287.73-5.43 289.09-6.86 290-8.7 290.92-10.55 291.38-12.55L291.38-12.55 293.53-22.75 296.87-22.75 292.06 0 288.72 0 289.92-5.69Q286.18 0.56 279.98 0.56L279.98 0.56Q271.58 0.56 273.53-8.69L273.53-8.69ZM319.67-7.86L322.31-7.25Q321.16-3.66 318.3-1.55 315.43 0.56 311.76 0.56L311.76 0.56Q309.76 0.56 308.26-0.1 306.76-0.76 305.84-1.93 304.93-3.1 304.62-4.75 304.32-6.4 304.71-8.35L304.71-8.35 307.17-19.9 302.02-19.9 302.61-22.75 307.76-22.75 309.71-31.86 313.06-31.86 311.11-22.75 320.82-22.75 320.21-19.9 310.52-19.9 308.08-8.35Q307.81-7.1 307.97-6.01 308.13-4.91 308.68-4.08 309.23-3.25 310.14-2.77 311.06-2.29 312.37-2.29L312.37-2.29Q314.87-2.29 316.87-3.85 318.87-5.4 319.67-7.86L319.67-7.86ZM380.7-31.86L373.94 0 370.6 0 371.01-2.1Q369.3-0.81 367.42-0.12 365.54 0.56 363.76 0.56L363.76 0.56Q361.05 0.56 359.1-0.32 357.15-1.2 356-2.77 354.85-4.35 354.52-6.54 354.19-8.74 354.75-11.35L354.75-11.35Q355.29-13.94 356.57-16.15 357.85-18.36 359.65-19.93 361.44-21.51 363.8-22.4 366.15-23.29 368.84-23.29L368.84-23.29Q370.65-23.29 372.22-22.64 373.8-22 374.94-20.7L374.94-20.7 376.75-29 372.21-29 372.79-31.86 380.7-31.86ZM371.7-5.3L374.31-17.46Q373.16-19.04 371.61-19.75 370.06-20.46 368.16-20.46L368.16-20.46Q366.15-20.46 364.48-19.75 362.81-19.04 361.53-17.82 360.25-16.6 359.38-14.95 358.51-13.31 358.1-11.35L358.1-11.35Q357.66-9.4 357.83-7.75 358-6.1 358.78-4.88 359.56-3.66 360.93-2.95 362.3-2.25 364.3-2.25L364.3-2.25Q368.16-2.25 371.7-5.3L371.7-5.3ZM380.95-6.15L380.95-6.15Q381.39-8.3 382.77-9.75 384.14-11.21 386.07-12.05 388-12.89 390.35-13.27 392.69-13.65 395.03-13.65L395.03-13.65Q395.94-13.65 396.64-13.62 397.35-13.6 398-13.55 398.65-13.5 399.27-13.43 399.89-13.35 400.7-13.26L400.7-13.26 401.04-14.89Q401.41-16.55 400.9-17.63 400.4-18.7 399.48-19.32 398.55-19.95 397.45-20.2 396.35-20.46 395.55-20.46L395.55-20.46Q392.98-20.46 390.71-19.78 388.44-19.09 386.34-17.94L386.34-17.94 385.34-20.46Q387.68-21.7 390.42-22.5 393.15-23.29 396.21-23.29L396.21-23.29Q398.04-23.29 399.75-22.81 401.45-22.34 402.65-21.35 403.85-20.36 404.35-18.75 404.85-17.14 404.38-14.89L404.38-14.89 401.23 0 397.89 0 398.7-3.81Q397.55-2.71 396.27-1.88 394.98-1.05 393.67-0.52 392.35 0 391.04 0.28 389.74 0.56 388.64 0.56L388.64 0.56Q384.14 0.56 382.19-1.17 380.24-2.91 380.95-6.15ZM389.25-2.29L389.25-2.29Q391.35-2.29 393.17-2.92 394.98-3.54 396.34-4.47 397.69-5.4 398.57-6.45 399.45-7.5 399.65-8.35L399.65-8.35 400.09-10.5Q398.5-10.74 397-10.77 395.5-10.79 394.4-10.79L394.4-10.79Q392.59-10.79 390.87-10.55 389.15-10.3 387.79-9.75 386.44-9.2 385.49-8.33 384.54-7.45 384.29-6.15L384.29-6.15Q383.95-4.71 385.1-3.5 386.24-2.29 389.25-2.29ZM434.29-22.29L432.63-19.56Q430.99-20.46 428.48-20.46L428.48-20.46Q426.43-20.46 424.66-19.58 422.89-18.7 421.46-17.27 420.03-15.84 419.03-14 418.03-12.16 417.64-10.21L417.64-10.21 416.08-2.86 421.23-2.86 420.64 0 406.99 0 407.58-2.86 412.73-2.86 416.34-19.9 411.19-19.9 411.78-22.75 420.28-22.75 419.08-17.04Q422.74-23.29 429.14-23.29L429.14-23.29Q430.9-23.29 432.12-23.07 433.34-22.85 434.29-22.29L434.29-22.29ZM447.79-12.3L456.97 0 452.23 0 445.08-10.21 440.17-6.45 438.83 0 435.48 0 442.22-31.86 445.59-31.86 441.02-10.5 456.58-22.75 461.39-22.75 447.79-12.3ZM486.73-10.21L467.07-10.21Q466.68-6.59 468.48-4.44 470.27-2.29 473.93-2.29L473.93-2.29Q476.47-2.29 478.69-3.34 480.91-4.39 482.28-5.96L482.28-5.96 484.26-4.35Q482.06-1.95 479.41-0.7 476.76 0.56 473.32 0.56L473.32 0.56Q470.66 0.56 468.67-0.32 466.68-1.2 465.4-2.77 464.12-4.35 463.69-6.52 463.26-8.69 463.87-11.35L463.87-11.35Q464.41-13.94 465.67-16.13 466.93-18.31 468.77-19.91 470.61-21.51 472.97-22.4 475.32-23.29 477.96-23.29L477.96-23.29Q480.87-23.29 482.82-22.31 484.77-21.34 485.87-19.62 486.97-17.9 487.14-15.5 487.31-13.11 486.73-10.21L486.73-10.21ZM467.73-13.06L483.77-13.06Q484.02-16.8 482.25-18.63 480.48-20.46 477.33-20.46L477.33-20.46Q475.71-20.46 474.24-19.93 472.76-19.41 471.52-18.43 470.27-17.46 469.27-16.08 468.27-14.7 467.73-13.06L467.73-13.06ZM516.17-22.29L514.51-19.56Q512.87-20.46 510.36-20.46L510.36-20.46Q508.3-20.46 506.53-19.58 504.76-18.7 503.34-17.27 501.91-15.84 500.91-14 499.91-12.16 499.52-10.21L499.52-10.21 497.95-2.86 503.1-2.86 502.52 0 488.87 0 489.46-2.86 494.61-2.86 498.22-19.9 493.07-19.9 493.66-22.75 502.15-22.75 500.96-17.04Q504.62-23.29 511.01-23.29L511.01-23.29Q512.77-23.29 513.99-23.07 515.21-22.85 516.17-22.29L516.17-22.29ZM530.76-4.54L529.81 0 525.25 0 526.2-4.54 530.76-4.54Z" opacity="1" transform="matrix(1,0,0,1,0,0)" fill="#33e499" class="slogan-text-1" data-fill-palette-color="secondary" id="text-1"></path></svg></g></svg></g></svg></g></svg></g><g transform="matrix(1,0,0,1,448.646424338207,0)"><svg viewBox="0 0 244.3032245624786 244.3032245624786" height="244.3032245624786" width="244.3032245624786"><g><svg></svg></g><g id="icon-0"><svg viewBox="0 0 244.3032245624786 244.3032245624786" height="244.3032245624786" width="244.3032245624786"><g><path d="M0 122.152c0-67.462 54.689-122.152 122.152-122.152 67.462 0 122.152 54.689 122.151 122.152 0 67.462-54.689 122.152-122.151 122.151-67.462 0-122.152-54.689-122.152-122.151zM122.152 234.156c61.858 0 112.004-50.146 112.004-112.004 0-61.858-50.146-112.004-112.004-112.005-61.858 0-112.004 50.146-112.005 112.005 0 61.858 50.146 112.004 112.005 112.004z" data-fill-palette-color="accent" fill="#33e499" stroke="transparent"></path><ellipse rx="120.9300961584269" ry="120.9300961584269" cx="122.1516122812393" cy="122.1516122812393" fill="#33e499" stroke="transparent" stroke-width="0" fill-opacity="1" data-fill-palette-color="accent"></ellipse></g><g transform="matrix(1,0,0,1,62.82098676952678,52.28580529036053)"><svg viewBox="0 0 118.66125102342502 139.73161398175753" height="139.73161398175753" width="118.66125102342502"><g><svg xmlns="http://www.w3.org/2000/svg" xmlns:xlink="http://www.w3.org/1999/xlink" version="1.1" x="0" y="0" viewBox="25 14 61.143 72" enable-background="new 0 0 100 100" xml:space="preserve" height="139.73161398175753" width="118.66125102342502" class="icon-dxe-0" data-fill-palette-color="quaternary" id="dxe-0"><path d="M72 36.385L86.143 22.243 81.9 18 72 27.9V14H66V20.91C61.988 16.658 56.306 14 50 14 37.85 14 28 23.85 28 36V55H25V75L64 86 75 75V55H72zM31.001 51L50.001 38 69.001 51z" fill="#000000" data-fill-palette-color="quaternary"></path><polygon points="41.699,46.814 38,49 45.398,49 " fill="#000000" data-fill-palette-color="quaternary"></polygon><polygon points="58.301,46.814 54.602,49 62,49 " fill="#000000" data-fill-palette-color="quaternary"></polygon></svg></g></svg></g></svg></g></svg></g></svg></g><defs></defs></svg><rect width="395.5199999999999" height="139.44275970446475" fill="none" stroke="none" visibility="hidden"></rect></g></svg></g></svg>