<?xml version="1.0" encoding="UTF-8"?>
<svg width="684.22" height="680.58" version="1.1" viewBox="0 0 684.22 680.58" xmlns="http://www.w3.org/2000/svg">
 <g fill="None" fill-opacity="0" stroke-width=".3">
  <g stroke="#000">
   <g transform="translate(-169.45 -187.89)">
    <path d="m530 221c-57.08-5.52-121.53 13.57-168.92 39.08-47.4 25.5-78.98 54.97-108.33 99.67-29.35 44.71-47.82 97.74-50.75 151.25s10.5 116.92 37.23 162.77 53.88 79.83 98.52 109.48c44.65 29.64 96.19 48.46 150.55 52.4 54.37 3.93 122.94-9.58 170.01-35.34 47.06-25.77 77.7-55.25 108.94-99.06 31.23-43.82 50.23-99.65 53.75-154.25s-10.75-117.91-37.23-164.77-55.1-78.22-99.07-108.93c-43.98-30.7-101.59-47.16-154.7-52.3m266 297c6.84-4.49 20.54-6.22 20.99 6.01s-13.11 11.58-19.99 5.99c-0.12 100-51.73 188.23-137.23 241.77s-211.65 53.13-296.85-0.69c-85.21-53.82-137.38-141.56-136.92-241.08-5.67 6.49-19.56 3.75-19.99-6.01s13.68-12.61 18.99-4.99c5.1-97.14 54.28-182.33 138.7-234.3 84.41-51.97 207.95-52.97 292.53-0.93s136.12 136.44 139.77 234.23z"/>
   </g>
   <g transform="translate(-169.45 -187.89)" stroke-opacity=".01">
    <path d="m796 518c-3.65-97.79-55.19-182.19-139.77-234.23s-208.12-51.04-292.53 0.93c-84.42 51.97-133.6 137.16-138.7 234.3-5.31-7.62-19.42-4.77-18.99 4.99s14.32 12.5 19.99 6.01c-0.46 99.52 51.71 187.26 136.92 241.08 85.2 53.82 211.35 54.23 296.85 0.69s137.11-141.77 137.23-241.77c6.88 5.59 20.44 6.24 19.99-5.99s-14.15-10.5-20.99-6.01m-240-148c-1.11-18.52 0-37.45 0-56 0-9.7 2.16-28.61-10.08-30.92-12.23-2.31-18.12 8.94-27 13.84s-13.9 13.28-22.17 18.83c-8.27 5.56-14.05 15.04-23.75 18.25-2.13-13.73 6.17-42.54-9.23-49.77s-26.41 11.64-37.52 19.02-22.01 18.6-32.5 27.5c-10.48 8.9-20.9 18.64-31.5 27.5-10.6 8.85-20.13 18.86-30 29-9.88 10.14-19.77 20.31-28.5 31.5-8.74 11.18-17.04 22.07-24.5 34.5-7.47 12.42-14.24 25.47-19.57 39.43-5.34 13.96-10.33 31.43-13.68 46.32-8.26-126.23 82.62-241.21 205.07-268.93s257.99 37.85 306.7 156.16c48.72 118.31 5 263.35-106.77 329.77-12.72-4.37-25.81-9.9-38.23-14.77-12.41-4.87-23.01-11.77-34.02-18.98-11-7.21-19.45-14.34-29-24-9.54-9.66-16.49-17.87-23.52-29.48s-12.54-27.32-11.23-41.77 6.72-26.23 20.68-32.32 31.2-5.91 47.32-5.68 36.36 0.45 52-1 36.77 3.22 50.23-2.77 17.68-15.76 29.52-23.48c11.85-7.72 17.85-14.92 30.33-22.67 12.48-7.74 12.18-26.65-2.1-31.06-14.29-4.4-22.74-12.19-36.06-16.94-13.31-4.76-23.19-11.71-36.15-16.85s-23.23-11.4-36.46-16.53c-13.24-5.13-14.82-20.43-20.24-32.77-5.41-12.35-5.91-29.8-20.75-32.25-14.83-2.46-23.03-13.57-37.32-16.68v-6m-104-64c3.06 25.88 2.44 56.14-11.3 77.7-13.75 21.56-36.85 31.28-61.7 28.3 5.7-21.33 16.32-42.77 26.92-62.08 10.61-19.3 31.24-28.33 46.08-43.92m84 45c0 3.37 1.29 10.71-1 13-2.77 2.77-10.88-4.15-15.02-4.98-4.15-0.82-10-5.68-14.21-7.79s-10.41-5.71-14.77-7.23c15.21-11.24 29.54-23.66 44-36 2.31 13.83 0.35 28.75 1 43m136 214c-10.57 1.99-22.32-11.1-33-14-31.72-5.05-71.87-15.21-104.22-11.22s-54.88 17.54-79.01 37.99-34.05 54.69-32.77 85.23 17.88 57.2 38.25 78.75 44.44 34.37 68.75 49.25c-13.16 2.77-30.15 3.59-43.67 2.67s-26.37-5.07-38.55-8.45c-12.19-3.37-20.76-10.19-30.03-17.97-9.26-7.79-15.97-14.07-25-22-9.02-7.93-14.37-15.93-21.67-25.33-7.3-9.41-12.8-19.4-17.06-30.94-4.25-11.55-8.57-24.06-10-37-1.43-12.95-2.65-30.83-1.02-43.98s4.48-27.26 8.98-39.02c4.49-11.77 9.86-20.74 15.94-31.06 6.07-10.32 12.31-17.91 19.85-27.15s16.48-15.03 25.48-22.52c8.99-7.5 19.16-11.59 29.83-17.17 10.66-5.59 21.75-10.26 33.93-13.07s29.11-5.89 41.99-6.01 28.18 0.59 34.3 12.7c6.13 12.11 14.78 20.38 29.7 17.3s-0.47-16.5-4.92-27.08c-4.46-10.57-12.62-20.39-26.1-20.9-13.49-0.5-31.37-1.16-44.98-0.02s-27.86 3.85-40.07 7.93c-12.22 4.07-23.5 6.64-34.16 12.84s-20.16 10.05-29.52 17.48c-9.35 7.44-16.72 15.24-26.25 21.75-3.38-10.07-4.38-23.46-5-34s-3.87-29.1 9-28 24.5-1.28 35.02-4.98c10.53-3.69 16.96-7.4 25.23-13.77 8.27-6.38 12.62-13.12 17.67-22.33 5.04-9.21 9-16.8 10.86-28.14s14.3-0.25 22.91 3.53c8.62 3.77 18.21 7.6 27 12 8.8 4.39 17.76 9.02 27.01 13 9.24 3.97 16.43 9.28 26.38 12.61 9.94 3.33 18.86 8.77 19.7 20.3 0.83 11.53 8.71 17.28 10.99 28.01 2.28 10.72 9.06 17.38 18.93 21.08 9.86 3.7 17.56 8.13 26.99 12 9.44 3.86 18.23 8.45 27.39 12.61 9.15 4.17 17.6 8.09 26.61 12.39 9.02 4.29 18.07 8.62 27.31 12.69-18.44 14.15-36.53 34.19-59 42m-303-190c-4.18 16.07-10.88 29.9-13.33 46.67s-3.86 39.41-1.67 56.33 9.15 35.76-1.75 49.25c-10.91 13.49-14.19 24.1-20.18 39.82-5.98 15.73-8.47 33.4-9.07 50.93s0.74 39.83 5.33 55.67 9.77 28.75 17.44 42.56 16.66 22.85 25.23 35.77c-34.8-15.14-54.82-41.24-78.77-71.23s-39.43-73.95-31.24-112.78c8.19-38.82 17.8-77.96 39.76-110.24 21.97-32.27 40.29-55.59 68.25-82.75m167 184c-8.95 16.14-27.43 22.84-34.78 41.22-7.34 18.38-8.15 45.13 0.71 62.85 8.85 17.73 18.01 31.36 31.82 45.18s26.07 23.54 41.5 34.5c15.42 10.97 35.67 15.48 50.75 26.25-16.67 3.65-38.18 20.98-56 18s-33.76-14.62-50.23-22.77-27.76-20.49-41.52-33.48-23.87-26.87-30.23-44.77c-6.35-17.91-6.69-46.44 0.76-64.2 7.45-17.77 18.49-29.71 33.97-41.03s34.64-17.96 53.25-21.75m26 8c-2.63 0.25-6.77 0.72-10 1-3.27 0.29-8.21 2.6-11 0 4.09-1.51 8.76-3.07 11-7 7.22-3.98 18.75 0.36 27 0s17.52 4.31 26 4c-13.51 2.32-28.56 2.03-43 2z"/>
   </g>
   <g transform="translate(-169.45 -187.89)">
    <path d="m556 314c1.72 17.81 0.66 38.28 0 56v6c14.29 3.11 22.49 14.22 37.32 16.68 14.84 2.45 15.34 19.9 20.75 32.25 5.42 12.34 7 27.64 20.24 32.77 13.23 5.13 23.5 11.39 36.46 16.53s22.84 12.09 36.15 16.85c13.32 4.75 21.77 12.54 36.06 16.94 14.28 4.41 14.58 23.32 2.1 31.06-12.48 7.75-18.48 14.95-30.33 22.67-11.84 7.72-16.06 17.49-29.52 23.48s-34.59 1.32-50.23 2.77-35.88 1.23-52 1-33.36-0.41-47.32 5.68-19.37 17.87-20.68 32.32 4.2 30.16 11.23 41.77 13.98 19.82 23.52 29.48c9.55 9.66 18 16.79 29 24 11.01 7.21 21.61 14.11 34.02 18.98 12.42 4.87 25.51 10.4 38.23 14.77 111.77-66.42 155.49-211.46 106.77-329.77-48.71-118.31-184.25-183.88-306.7-156.16s-213.33 142.7-205.07 268.93c3.35-14.89 8.34-32.36 13.68-46.32 5.33-13.96 12.1-27.01 19.57-39.43 7.46-12.43 15.76-23.32 24.5-34.5 8.73-11.19 18.62-21.36 28.5-31.5 9.87-10.14 19.4-20.15 30-29 10.6-8.86 21.02-18.6 31.5-27.5 10.49-8.9 21.39-20.12 32.5-27.5s22.12-26.25 37.52-19.02 7.1 36.04 9.23 49.77c9.7-3.21 15.48-12.69 23.75-18.25 8.27-5.55 13.29-13.93 22.17-18.83s14.77-16.15 27-13.84c12.24 2.31 10.08 21.22 10.08 30.92z"/>
    <path d="m452 306c-14.84 15.59-35.47 24.62-46.08 43.92-10.6 19.31-21.22 40.75-26.92 62.08 24.85 2.98 47.95-6.74 61.7-28.3 13.74-21.56 14.36-51.82 11.3-77.7z"/>
    <path d="m535 364c1.05-1.63 0.84-11.3 1-13-0.65-14.25 1.31-29.17-1-43-14.46 12.34-28.79 24.76-44 36 4.36 1.52 10.56 5.12 14.77 7.23s10.06 6.97 14.21 7.79c4.14 0.83 12.25 7.75 15.02 4.98z"/>
   </g>
  </g>
  <g transform="translate(-169.45 -187.89)" stroke="#fff" stroke-opacity=".41">
   <path d="m556 370c0.66-17.72 1.72-38.19 0-56 0 18.55-1.11 37.48 0 56z"/>
  </g>
  <g transform="translate(-169.45 -187.89)" stroke="#fff" stroke-opacity=".57">
   <path d="m535 364c2.29-2.29 1-9.63 1-13-0.16 1.7 0.05 11.37-1 13z"/>
  </g>
  <g transform="translate(-169.45 -187.89)" stroke="#000">
   <path d="m639 551c6.31 1 12.6 1.29 18.23 4.77 5.62 3.48 6.91 9.65 14.77 9.23 22.47-7.81 40.56-27.85 59-42-9.24-4.07-18.29-8.4-27.31-12.69-9.01-4.3-17.46-8.22-26.61-12.39-9.16-4.16-17.95-8.75-27.39-12.61-9.43-3.87-17.13-8.3-26.99-12-9.87-3.7-16.65-10.36-18.93-21.08-2.28-10.73-10.16-16.48-10.99-28.01-0.84-11.53-9.76-16.97-19.7-20.3-9.95-3.33-17.14-8.64-26.38-12.61-9.25-3.98-18.21-8.61-27.01-13-8.79-4.4-18.38-8.23-27-12-8.61-3.78-21.05-14.87-22.91-3.53s-5.82 18.93-10.86 28.14c-5.05 9.21-9.4 15.95-17.67 22.33-8.27 6.37-14.7 10.08-25.23 13.77-10.52 3.7-22.15 6.08-35.02 4.98s-9.62 17.46-9 28 1.62 23.93 5 34c9.53-6.51 16.9-14.31 26.25-21.75 9.36-7.43 18.86-11.28 29.52-17.48s21.94-8.77 34.16-12.84c12.21-4.08 26.46-6.79 40.07-7.93s31.49-0.48 44.98 0.02c13.48 0.51 21.64 10.33 26.1 20.9 4.45 10.58 19.84 24 4.92 27.08s-23.57-5.19-29.7-17.3c-6.12-12.11-21.42-12.82-34.3-12.7s-29.81 3.2-41.99 6.01-23.27 7.48-33.93 13.07c-10.67 5.58-20.84 9.67-29.83 17.17-9 7.49-17.94 13.28-25.48 22.52s-13.78 16.83-19.85 27.15c-6.08 10.32-11.45 19.29-15.94 31.06-4.5 11.76-7.35 25.87-8.98 39.02s-0.41 31.03 1.02 43.98c1.43 12.94 5.75 25.45 10 37 4.26 11.54 9.76 21.53 17.06 30.94 7.3 9.4 12.65 17.4 21.67 25.33 9.03 7.93 15.74 14.21 25 22 9.27 7.78 17.84 14.6 30.03 17.97 12.18 3.38 25.03 7.53 38.55 8.45s30.51 0.1 43.67-2.67c-24.31-14.88-48.38-27.7-68.75-49.25s-36.97-48.21-38.25-78.75 8.64-64.78 32.77-85.23 46.66-34 79.01-37.99 72.5 6.17 104.22 11.22z"/>
   <path d="m369 375c-27.96 27.16-46.28 50.48-68.25 82.75-21.96 32.28-31.57 71.42-39.76 110.24-8.19 38.83 7.29 82.79 31.24 112.78s43.97 56.09 78.77 71.23c-8.57-12.92-17.56-21.96-25.23-35.77s-12.85-26.72-17.44-42.56-5.93-38.14-5.33-55.67 3.09-35.2 9.07-50.93c5.99-15.72 9.27-26.33 20.18-39.82 10.9-13.49 3.94-32.33 1.75-49.25s-0.78-39.56 1.67-56.33 9.15-30.6 13.33-46.67z"/>
  </g>
  <g transform="translate(-169.45 -187.89)" stroke="#fff" stroke-opacity=".51">
   <path d="m672 565c-7.86 0.42-9.15-5.75-14.77-9.23-5.63-3.48-11.92-3.77-18.23-4.77 10.68 2.9 22.43 15.99 33 14z"/>
  </g>
  <g transform="translate(-169.45 -187.89)" stroke="#000">
   <path d="m536 559c-18.61 3.79-37.77 10.43-53.25 21.75s-26.52 23.26-33.97 41.03c-7.45 17.76-7.11 46.29-0.76 64.2 6.36 17.9 16.47 31.78 30.23 44.77s25.05 25.33 41.52 33.48 32.41 19.79 50.23 22.77 39.33-14.35 56-18c-15.08-10.77-35.33-15.28-50.75-26.25-15.43-10.96-27.69-20.68-41.5-34.5s-22.97-27.45-31.82-45.18c-8.86-17.72-8.05-44.47-0.71-62.85 7.35-18.38 25.83-25.08 34.78-41.22z"/>
  </g>
  <g transform="translate(-169.45 -187.89)" stroke="#fff" stroke-opacity=".68">
   <path d="m552 568c3.23-0.28 7.37-0.75 10-1-4.21-0.32-5.49-0.74-8-4 0.18 1.1-1.12 4.33-2 5z"/>
  </g>
 </g>
 <g stroke="None">
  <g transform="translate(-169.45 -187.89)">
   <path d="m530 221c-57.08-5.52-121.53 13.57-168.92 39.08-47.4 25.5-78.98 54.97-108.33 99.67-29.35 44.71-47.82 97.74-50.75 151.25s10.5 116.92 37.23 162.77 53.88 79.83 98.52 109.48c44.65 29.64 96.19 48.46 150.55 52.4 54.37 3.93 122.94-9.58 170.01-35.34 47.06-25.77 77.7-55.25 108.94-99.06 31.23-43.82 50.23-99.65 53.75-154.25s-10.75-117.91-37.23-164.77-55.1-78.22-99.07-108.93c-43.98-30.7-101.59-47.16-154.7-52.3m266 297c6.84-4.49 20.54-6.22 20.99 6.01s-13.11 11.58-19.99 5.99c-0.12 100-51.73 188.23-137.23 241.77s-211.65 53.13-296.85-0.69c-85.21-53.82-137.38-141.56-136.92-241.08-5.67 6.49-19.56 3.75-19.99-6.01s13.68-12.61 18.99-4.99c5.1-97.14 54.28-182.33 138.7-234.3 84.41-51.97 207.95-52.97 292.53-0.93s136.12 136.44 139.77 234.23z"/>
   <path d="m556 314c0.16984 18.144-0.23313 38.28 0 56v6c14.29 3.11 22.49 14.22 37.32 16.68 14.84 2.45 15.34 19.9 20.75 32.25 5.42 12.34 7 27.64 20.24 32.77 13.23 5.13 23.5 11.39 36.46 16.53s22.84 12.09 36.15 16.85c13.32 4.75 21.77 12.54 36.06 16.94 14.28 4.41 14.58 23.32 2.1 31.06-12.48 7.75-18.48 14.95-30.33 22.67-11.84 7.72-16.06 17.49-29.52 23.48s-34.59 1.32-50.23 2.77-35.88 1.23-52 1-33.36-0.41-47.32 5.68-19.37 17.87-20.68 32.32 4.2 30.16 11.23 41.77 13.98 19.82 23.52 29.48c9.55 9.66 18 16.79 29 24 11.01 7.21 21.61 14.11 34.02 18.98 12.42 4.87 25.51 10.4 38.23 14.77 111.77-66.42 155.49-211.46 106.77-329.77-48.71-118.31-184.25-183.88-306.7-156.16s-213.33 142.7-205.07 268.93c3.35-14.89 8.34-32.36 13.68-46.32 5.33-13.96 12.1-27.01 19.57-39.43 7.46-12.43 15.76-23.32 24.5-34.5 8.73-11.19 18.62-21.36 28.5-31.5 9.87-10.14 19.4-20.15 30-29 10.6-8.86 21.02-18.6 31.5-27.5 10.49-8.9 21.39-20.12 32.5-27.5s22.12-26.25 37.52-19.02 7.1 36.04 9.23 49.77c9.7-3.21 15.48-12.69 23.75-18.25 8.27-5.55 13.29-13.93 22.17-18.83s14.77-16.15 27-13.84c12.24 2.31 10.08 21.22 10.08 30.92z"/>
   <path d="m452 306c-14.84 15.59-35.47 24.62-46.08 43.92-10.6 19.31-21.22 40.75-26.92 62.08 24.85 2.98 47.95-6.74 61.7-28.3 13.74-21.56 14.36-51.82 11.3-77.7z"/>
   <path d="m535 364c1.05-1.63 0.84-11.3 1-13-0.65-14.25 1.31-29.17-1-43-14.46 12.34-28.79 24.76-44 36 4.36 1.52 10.56 5.12 14.77 7.23s10.06 6.97 14.21 7.79c4.14 0.83 12.25 7.75 15.02 4.98z"/>
  </g>
  <g transform="translate(-169.45 -187.89)" fill="#fff" fill-opacity=".57">
   <path d="m535 364c2.29-2.29 1-9.63 1-13-0.16 1.7 0.05 11.37-1 13z"/>
  </g>
  <g transform="translate(-169.45 -187.89)">
   <path d="m639 551c6.31 1 10.059 4.935 15.689 8.415 5.62 3.48 9.4506 6.005 17.311 5.585 22.47-7.81 40.56-27.85 59-42-9.24-4.07-18.29-8.4-27.31-12.69-9.01-4.3-17.46-8.22-26.61-12.39-9.16-4.16-17.95-8.75-27.39-12.61-9.43-3.87-17.13-8.3-26.99-12-9.87-3.7-16.65-10.36-18.93-21.08-2.28-10.73-10.16-16.48-10.99-28.01-0.84-11.53-9.76-16.97-19.7-20.3-9.95-3.33-17.14-8.64-26.38-12.61-9.25-3.98-18.21-8.61-27.01-13-8.79-4.4-18.38-8.23-27-12-8.61-3.78-21.05-14.87-22.91-3.53s-5.82 18.93-10.86 28.14c-5.05 9.21-9.4 15.95-17.67 22.33-8.27 6.37-14.7 10.08-25.23 13.77-10.52 3.7-22.15 6.08-35.02 4.98s-9.62 17.46-9 28 1.62 23.93 5 34c9.53-6.51 16.9-14.31 26.25-21.75 9.36-7.43 18.86-11.28 29.52-17.48s21.94-8.77 34.16-12.84c12.21-4.08 26.46-6.79 40.07-7.93s31.49-0.48 44.98 0.02c13.48 0.51 21.64 10.33 26.1 20.9 4.45 10.58 19.84 24 4.92 27.08s-23.57-5.19-29.7-17.3c-6.12-12.11-21.42-12.82-34.3-12.7s-29.81 3.2-41.99 6.01-23.27 7.48-33.93 13.07c-10.67 5.58-20.84 9.67-29.83 17.17-9 7.49-17.94 13.28-25.48 22.52s-13.78 16.83-19.85 27.15c-6.08 10.32-11.45 19.29-15.94 31.06-4.5 11.76-7.35 25.87-8.98 39.02s-0.41 31.03 1.02 43.98c1.43 12.94 5.75 25.45 10 37 4.26 11.54 9.76 21.53 17.06 30.94 7.3 9.4 12.65 17.4 21.67 25.33 9.03 7.93 15.74 14.21 25 22 9.27 7.78 17.84 14.6 30.03 17.97 12.18 3.38 25.03 7.53 38.55 8.45s30.51 0.1 43.67-2.67c-24.31-14.88-48.38-27.7-68.75-49.25s-36.97-48.21-38.25-78.75 8.64-64.78 32.77-85.23 46.66-34 79.01-37.99 72.5 6.17 104.22 11.22z"/>
   <path d="m369 375c-27.96 27.16-46.28 50.48-68.25 82.75-21.96 32.28-31.57 71.42-39.76 110.24-8.19 38.83 7.29 82.79 31.24 112.78s43.97 56.09 78.77 71.23c-8.57-12.92-17.56-21.96-25.23-35.77s-12.85-26.72-17.44-42.56-5.93-38.14-5.33-55.67 3.09-35.2 9.07-50.93c5.99-15.72 9.27-26.33 20.18-39.82 10.9-13.49 3.94-32.33 1.75-49.25s-0.78-39.56 1.67-56.33 9.15-30.6 13.33-46.67z"/>
  </g>
  <g transform="translate(-169.45 -187.89)" fill="#fff" fill-opacity=".51">
   <path d="m672 565c-448-376.67-224-188.33 0 0z"/>
  </g>
  <g transform="translate(-169.45 -187.89)">
   <path d="m536 559c-18.61 3.79-37.77 10.43-53.25 21.75s-26.52 23.26-33.97 41.03c-7.45 17.76-7.11 46.29-0.76 64.2 6.36 17.9 16.47 31.78 30.23 44.77s25.05 25.33 41.52 33.48 32.41 19.79 50.23 22.77 39.33-14.35 56-18c-15.08-10.77-35.33-15.28-50.75-26.25-15.43-10.96-27.69-20.68-41.5-34.5s-22.97-27.45-31.82-45.18c-8.86-17.72-8.05-44.47-0.71-62.85 7.35-18.38 25.83-25.08 34.78-41.22z"/>
   <path d="m551.75 560.72c-4.5707 4.5146-1.5889 5.3822 10.248 6.2801 14.44 0.03 29.49 0.32 43-2-8.48 0.31-17.75-4.36-26-4s-20.028-4.2601-27.248-0.28014z"/>
  </g>
 </g>
</svg>
