<?xml version="1.0"?>
<svg width="996" height="298" xmlns="http://www.w3.org/2000/svg" xmlns:svg="http://www.w3.org/2000/svg" version="1.1">
 <g class="layer">
  <title>Layer 1</title>
  <g id="svg_6" transform="matrix(0.666667, 0, 0, 0.666667, 248.769, 599.578)">
   <svg data-background-color="#3c6d71" height="449" id="svg_34" preserveAspectRatio="xMidYMid meet" viewBox="0 0 357 107" width="1500" x="-375.96" xmlns="http://www.w3.org/2000/svg" xmlns:xlink="http://www.w3.org/1999/xlink" y="-900.49">
    <g id="svg_1" transform="matrix(1,0,0,1,0.43950000000003797,0.27000000000001023)">
     <g id="svg_11">
      <svg height="106.46" id="svg_35" viewBox="0 0 356.12052 106.45954290269299" width="356.12">
       <g id="svg_16">
        <svg height="106.46" id="svg_36" viewBox="0 0 356.12052 106.45954290269299" width="356.12">
         <g id="svg_21">
          <svg height="106.46" id="svg_37" viewBox="0 0 356.12052 106.45954290269299" width="356.12">
           <g id="svg_38">
            <path d="m0,106.46l0,-106.46l356.12,0l0,106.46l-356.12,0z" data-fill-palette-color="tertiary" fill="#beef62" id="svg_39" stroke="transparent" stroke-width="0"/>
            <path d="m3.28,103.18l0,-99.9l349.56,0l0,99.9l-349.56,0z" data-fill-palette-color="quaternary" fill="#000000" id="svg_40" stroke="transparent" stroke-width="0"/>
            <path d="m9.85,96.61l0,-86.76l336.42,0l0,86.76l-336.42,0z" data-fill-palette-color="tertiary" fill="#beef62" id="svg_41" stroke="transparent" stroke-width="0"/>
           </g>
           <g id="svg_17" transform="matrix(1,0,0,1,19.69974,19.69974)">
            <svg height="67.06" id="svg_22" viewBox="0 0 316.72104 67.06006290269299" width="316.72">
             <g id="svg_26">
              <svg height="39.3" id="svg_42" viewBox="0 0 316.72104 39.30171234579893" width="316.72">
               <g id="svg_28" transform="matrix(1,0,0,1,0,0)">
                <svg data-palette-color="#000000" height="39.3" id="svg_43" viewBox="1.25 -25.2 205.88 25.55" width="316.72">
                 <path class="wordmark-text-0" d="m13.2,-8.7l-0.05,1.55l0.15,7.15l-3.75,0l0.2,-7.15l-0.05,-1.55l-8.45,-16.2l4.1,0l0.5,1.45l5.6,10.7l0.25,0l6.1,-10.55l0.65,-1.6l4,0l-9.25,16.2zm23.05,-16.5q5.45,0 8.37,3.2q2.93,3.2 2.93,9.05l0,0q0,6.35 -3.13,9.82q-3.12,3.48 -8.92,3.48l0,0q-5.4,0 -8.35,-3.28q-2.95,-3.27 -2.95,-9.32l0,0q0,-6.2 3.15,-9.58q3.15,-3.37 8.9,-3.37l0,0zm-0.35,3.15q-3.95,0 -5.88,2.25q-1.92,2.25 -1.92,7.1l0,0q0,5.2 1.9,7.55q1.9,2.35 5.8,2.35l0,0q4,0 5.95,-2.3q1.95,-2.3 1.95,-7.2l0,0q0,-5.05 -1.93,-7.4q-1.92,-2.35 -5.87,-2.35l0,0zm37.69,-2.85l-0.14,12.65l0,3.6q0.05,4.25 -2.58,6.6q-2.62,2.35 -7.53,2.35l0,0q-4.84,0 -7.39,-2.32q-2.55,-2.33 -2.45,-6.63l0,0l0.05,-3.8l-0.05,-12.45l3.75,0l-0.2,15.65q-0.05,3.15 1.57,4.75q1.63,1.6 4.88,1.6l0,0q3.2,0 4.84,-1.6q1.66,-1.6 1.61,-4.75l0,0l-0.15,-15.65l3.79,0zm19.6,14.85q3.05,4.65 6.75,9.15l0,0l-0.05,0.5q-2.1,0.65 -3.45,0.75l0,0l-0.65,-0.4q-3.8,-5.75 -5.75,-9.05l0,0l-4.7,0.05l0,1.25l0.1,7.8l-3.7,0l0.15,-7.5l-0.15,-17.4l8.5,-0.05q3.95,0 6.08,1.85q2.12,1.85 2.12,5.35l0,0q0,2.55 -1.37,4.55q-1.38,2 -3.88,3.15l0,0zm-7.75,-11.85l-0.05,9.75l4.7,0.15q4.45,-1.25 4.45,-5.45l0,0q0,-2.2 -1.3,-3.3q-1.3,-1.1 -3.95,-1.2l0,0l-3.85,0.05zm42.55,18.75l0.2,0.35l-0.25,2.8l-13.25,0l0.15,-7.5l-0.15,-17.4l3.75,0l-0.15,17.1l0.1,4.65l9.6,0zm13.7,-22.05q5.45,0 8.37,3.2q2.93,3.2 2.93,9.05l0,0q0,6.35 -3.13,9.82q-3.12,3.48 -8.92,3.48l0,0q-5.4,0 -8.35,-3.28q-2.95,-3.27 -2.95,-9.32l0,0q0,-6.2 3.15,-9.58q3.15,-3.37 8.9,-3.37l0,0zm-0.35,3.15q-3.95,0 -5.88,2.25q-1.92,2.25 -1.92,7.1l0,0q0,5.2 1.9,7.55q1.9,2.35 5.8,2.35l0,0q4,0 5.95,-2.3q1.95,-2.3 1.95,-7.2l0,0q0,-5.05 -1.93,-7.4q-1.92,-2.35 -5.87,-2.35l0,0zm29.19,-3.1q3.9,0 7.85,1.7l0,0l-1.25,3.6l-0.45,0q-1.85,-1.2 -3.4,-1.68q-1.55,-0.47 -3.35,-0.47l0,0q-4.25,0 -6.37,2.4q-2.13,2.4 -2.13,7.5l0,0q0,4.9 1.95,7.07q1.95,2.18 6.2,2.18l0,0q1.25,0 2.4,-0.23q1.15,-0.22 2.8,-0.82l0,0l0,-2.5l-0.05,-3.55l3.45,-0.25l0,9q-5.05,1.5 -8.75,1.5l0,0q-5.9,0 -8.92,-3.18q-3.03,-3.17 -3.03,-9.07l0,0q0,-6.4 3.43,-9.8q3.42,-3.4 9.62,-3.4l0,0zm25.3,-0.05q5.45,0 8.38,3.2q2.92,3.2 2.92,9.05l0,0q0,6.35 -3.12,9.82q-3.13,3.48 -8.93,3.48l0,0q-5.4,0 -8.35,-3.28q-2.95,-3.27 -2.95,-9.32l0,0q0,-6.2 3.15,-9.58q3.15,-3.37 8.9,-3.37l0,0zm-0.35,3.15q-3.95,0 -5.87,2.25q-1.93,2.25 -1.93,7.1l0,0q0,5.2 1.9,7.55q1.9,2.35 5.8,2.35l0,0q4,0 5.95,-2.3q1.95,-2.3 1.95,-7.2l0,0q0,-5.05 -1.92,-7.4q-1.93,-2.35 -5.88,-2.35l0,0z" data-fill-palette-color="quaternary" fill="#000000" id="svg_27" transform="matrix(1,0,0,1,0,0)"/>
                </svg>
               </g>
              </svg>
             </g>
             <g id="svg_30" transform="matrix(1,0,0,1,0,45.868292345798935)">
              <svg height="21.19" id="svg_44" viewBox="0 0 316.72104 21.19177055689406" width="316.72">
               <g id="svg_32" transform="matrix(1,0,0,1,0,0)">
                <svg data-palette-color="#000000" height="21.19" id="svg_45" viewBox="4 -37 726.35 48.6" width="316.72">
                 <path class="slogan-text-1" d="m12.75,5l-8.75,0l0,-42l8.75,0l0,3.75l-4.75,0l0,34.5l4.75,0l0,3.75zm17.2,-4.4l0,0q-3.7,0 -6.65,-1.73q-2.95,-1.72 -4.62,-4.8q-1.68,-3.07 -1.68,-7.07l0,0q0,-4.2 1.7,-7.25q1.7,-3.05 4.65,-4.7q2.95,-1.65 6.6,-1.65l0,0q3.65,0 6.58,1.65q2.92,1.65 4.65,4.67q1.72,3.03 1.72,7.18l0,0q0,4.15 -1.7,7.22q-1.7,3.08 -4.62,4.78q-2.93,1.7 -6.63,1.7zm0,-4l0,0q3.95,0 6.15,-2.68q2.2,-2.67 2.2,-6.92l0,0q0,-2.6 -1.1,-4.78q-1.1,-2.17 -2.97,-3.5q-1.88,-1.32 -4.28,-1.32l0,0q-3.95,0 -6.15,2.6q-2.2,2.6 -2.2,6.9l0,0q0,2.6 1.1,4.82q1.1,2.23 2.98,3.55q1.87,1.33 4.27,1.33zm23.4,14.4l-4.5,0l0,-30.35q0,-1.7 -0.82,-2.43q-0.83,-0.72 -2.13,-0.72l0,0l0.95,-3.5q4.6,0 5.75,3.65l0,0q0.5,-0.75 1.63,-1.75q1.12,-1 2.8,-1.75q1.67,-0.75 3.82,-0.75l0,0q3,0 5.63,1.57q2.62,1.58 4.22,4.55q1.6,2.98 1.6,7.23l0,0q0,4.15 -1.6,7.27q-1.6,3.13 -4.17,4.85q-2.58,1.73 -5.58,1.73l0,0q-2.3,0 -4.3,-0.93q-2,-0.92 -3.3,-2.12l0,0l0,13.45zm6.7,-14.4l0,0q3.4,0 5.53,-2.68q2.12,-2.67 2.12,-7.02l0,0q0,-3 -1.07,-5.15q-1.08,-2.15 -2.85,-3.3q-1.78,-1.15 -3.93,-1.15l0,0q-2.15,0 -3.87,1.07q-1.73,1.08 -2.63,2.33l0,0l0,12.8q1.3,1.35 3,2.22q1.7,0.88 3.7,0.88zm27.6,4l0,0q-3.75,0 -5.92,-2.48q-2.18,-2.47 -2.18,-7.07l0,0l0,-12.2l-4.5,0l0,-3.9l4.6,0l0.95,-8.2l3.45,0l0,8.2l7.2,0l0,3.9l-7.2,0l0,12.55q0,2.9 1.23,4.05q1.22,1.15 2.92,1.15l0,0q1.25,0 2.38,-0.4q1.12,-0.4 2.07,-0.95l0,0l1.25,3.6q-1,0.6 -2.7,1.18q-1.7,0.57 -3.55,0.57zm15.25,-0.6l-4.5,0l0,-26l4.5,0l0,26zm-2.25,-30.45l0,0q-1.3,0 -2.22,-0.95q-0.93,-0.95 -0.93,-2.2l0,0q0,-1.45 0.85,-2.3q0.85,-0.85 2.3,-0.85l0,0q1.3,0 2.23,0.92q0.92,0.93 0.92,2.23l0,0q0,1.4 -0.85,2.27q-0.85,0.88 -2.3,0.88zm21.2,31.05l0,0q-3.7,0 -6.65,-1.73q-2.95,-1.72 -4.62,-4.8q-1.68,-3.07 -1.68,-7.07l0,0q0,-4.2 1.7,-7.25q1.7,-3.05 4.65,-4.7q2.95,-1.65 6.6,-1.65l0,0q3.65,0 6.58,1.65q2.92,1.65 4.65,4.67q1.72,3.03 1.72,7.18l0,0q0,4.15 -1.7,7.22q-1.7,3.08 -4.62,4.78q-2.93,1.7 -6.63,1.7zm0,-4l0,0q3.95,0 6.15,-2.68q2.2,-2.67 2.2,-6.92l0,0q0,-2.6 -1.1,-4.78q-1.1,-2.17 -2.97,-3.5q-1.88,-1.32 -4.28,-1.32l0,0q-3.95,0 -6.15,2.6q-2.2,2.6 -2.2,6.9l0,0q0,2.6 1.1,4.82q1.1,2.23 2.98,3.55q1.87,1.33 4.27,1.33zm23.45,3.4l-4.5,0l0,-26l4.35,0l0,4.35q1.4,-2.1 3.58,-3.53q2.17,-1.42 5.17,-1.42l0,0q4.4,0 6.58,2.65q2.17,2.65 2.17,7l0,0l0,16.95l-4.5,0l0,-16.45q0,-2.8 -1.32,-4.5q-1.33,-1.7 -3.68,-1.7l0,0q-2.3,0 -4.35,1.62q-2.05,1.63 -3.5,3.83l0,0l0,17.2zm35.05,0.6l0,0q-3.25,0 -5.9,-1.65q-2.65,-1.65 -4.23,-4.68q-1.57,-3.02 -1.57,-7.12l0,0q0,-3.9 1.57,-7q1.58,-3.1 4.36,-4.93q2.77,-1.82 6.37,-1.82l0,0q2.25,0 4.08,0.77q1.82,0.78 3.17,1.93l0,0l0,-2.1l4.1,0l0,19.7q0,1.9 0.93,2.47q0.92,0.58 2.02,0.58l0,0l-0.95,3.5q-4.8,0 -5.8,-3.9l0,0q-1.15,1.6 -3.12,2.92q-1.98,1.33 -5.03,1.33zm1,-4l0,0q1.9,0 3.6,-0.93q1.7,-0.92 2.85,-2.32l0,0l0,-13.95q-1.35,-0.95 -2.97,-1.53q-1.63,-0.57 -3.43,-0.57l0,0q-2.4,0 -4.22,1.22q-1.83,1.23 -2.88,3.41q-1.05,2.17 -1.05,5.07l0,0q0,2.8 1.05,4.97q1.05,2.18 2.9,3.4q1.85,1.23 4.15,1.23zm27.8,4l0,0q-2.3,0 -4.15,-0.88q-1.85,-0.87 -2.93,-2.82q-1.07,-1.95 -1.07,-5.05l0,0l0,-28.85l4.5,0l0,28.4q0,2.7 1.13,4q1.12,1.3 3.12,1.3l0,0q0.95,0 1.88,-0.23q0.92,-0.22 1.57,-0.52l0,0l1.1,3.65q-0.9,0.4 -2.23,0.7q-1.32,0.3 -2.92,0.3zm16.8,0l0,0q-2.3,0 -4.15,-0.88q-1.85,-0.87 -2.92,-2.82q-1.08,-1.95 -1.08,-5.05l0,0l0,-28.85l4.5,0l0,28.4q0,2.7 1.13,4q1.12,1.3 3.12,1.3l0,0q0.95,0 1.88,-0.23q0.92,-0.22 1.57,-0.52l0,0l1.1,3.65q-0.9,0.4 -2.22,0.7q-1.33,0.3 -2.93,0.3zm8.05,11l0,0q-1.5,0 -2.62,-0.3q-1.13,-0.3 -1.78,-0.7l0,0l1,-3.75q0.6,0.35 1.5,0.6q0.9,0.25 2,0.25l0,0q2.1,0 3.75,-1.35q1.65,-1.35 3.15,-5.3l0,0l1.15,-3l-2.4,0l-10.15,-22.85l4,-1.8l9.7,21.65l7.55,-21.45l4.15,1.6l-9.55,26.1q-1.45,4 -3.15,6.25q-1.7,2.25 -3.75,3.15q-2.05,0.9 -4.55,0.9zm32.5,-6.6l-8.75,0l0,-3.75l4.75,0l0,-34.5l-4.75,0l0,-3.75l8.75,0l0,42zm32.95,-4.4l0,0q-3.25,0 -5.9,-1.65q-2.65,-1.65 -4.23,-4.68q-1.57,-3.02 -1.57,-7.12l0,0q0,-3.9 1.57,-7q1.58,-3.1 4.36,-4.93q2.77,-1.82 6.37,-1.82l0,0q2.25,0 4.08,0.77q1.82,0.78 3.17,1.93l0,0l0,-2.1l4.1,0l0,19.7q0,1.9 0.92,2.47q0.93,0.58 2.03,0.58l0,0l-0.95,3.5q-4.8,0 -5.8,-3.9l0,0q-1.15,1.6 -3.12,2.92q-1.98,1.33 -5.03,1.33zm1,-4l0,0q1.9,0 3.6,-0.93q1.7,-0.92 2.85,-2.32l0,0l0,-13.95q-1.35,-0.95 -2.97,-1.53q-1.63,-0.57 -3.43,-0.57l0,0q-2.4,0 -4.23,1.22q-1.82,1.23 -2.87,3.41q-1.05,2.17 -1.05,5.07l0,0q0,2.8 1.05,4.97q1.05,2.18 2.9,3.4q1.85,1.23 4.15,1.23zm29.25,4l0,0q-3.2,0 -5.85,-1.65q-2.65,-1.65 -4.2,-4.68q-1.55,-3.02 -1.55,-7.12l0,0q0,-3.95 1.58,-7.05q1.57,-3.1 4.2,-4.9q2.62,-1.8 5.77,-1.8l0,0q2.6,0 4.48,1.05q1.87,1.05 2.92,2.15l0,0l0,-13.6l4.5,0l0,30.7q0,1.9 0.93,2.47q0.92,0.58 2.02,0.58l0,0l-0.95,3.5q-4.75,0 -5.8,-3.8l0,0q-1.1,1.55 -3.07,2.85q-1.98,1.3 -4.98,1.3zm1,-4l0,0q1.85,0 3.53,-0.88q1.67,-0.87 2.82,-2.27l0,0l0,-12.9q-0.95,-1.2 -2.65,-2.23q-1.7,-1.02 -3.75,-1.02l0,0q-2.4,0 -4.2,1.3q-1.8,1.3 -2.77,3.47q-0.98,2.18 -0.98,4.93l0,0q0,2.75 1.05,4.92q1.05,2.18 2.88,3.43q1.82,1.25 4.07,1.25zm29.15,4l0,0q-3.2,0 -5.85,-1.65q-2.65,-1.65 -4.2,-4.68q-1.55,-3.02 -1.55,-7.12l0,0q0,-3.95 1.57,-7.05q1.58,-3.1 4.2,-4.9q2.63,-1.8 5.78,-1.8l0,0q2.6,0 4.47,1.05q1.88,1.05 2.93,2.15l0,0l0,-13.6l4.5,0l0,30.7q0,1.9 0.93,2.47q0.92,0.58 2.02,0.58l0,0l-0.95,3.5q-4.75,0 -5.8,-3.8l0,0q-1.1,1.55 -3.08,2.85q-1.97,1.3 -4.97,1.3zm1,-4l0,0q1.85,0 3.53,-0.88q1.67,-0.87 2.82,-2.27l0,0l0,-12.9q-0.95,-1.2 -2.65,-2.23q-1.7,-1.02 -3.75,-1.02l0,0q-2.4,0 -4.2,1.3q-1.8,1.3 -2.78,3.47q-0.97,2.18 -0.97,4.93l0,0q0,2.75 1.05,4.92q1.05,2.18 2.87,3.43q1.83,1.25 4.08,1.25zm35.45,15l0,0q-1.5,0 -2.63,-0.3q-1.12,-0.3 -1.77,-0.7l0,0l1,-3.75q0.6,0.35 1.5,0.6q0.9,0.25 2,0.25l0,0q2.1,0 3.75,-1.35q1.65,-1.35 3.15,-5.3l0,0l1.15,-3l-2.4,0l-10.15,-22.85l4,-1.8l9.7,21.65l7.55,-21.45l4.15,1.6l-9.55,26.1q-1.45,4 -3.15,6.25q-1.7,2.25 -3.75,3.15q-2.05,0.9 -4.55,0.9zm35.45,-11l0,0q-3.7,0 -6.65,-1.73q-2.95,-1.72 -4.63,-4.8q-1.67,-3.07 -1.67,-7.07l0,0q0,-4.2 1.7,-7.25q1.7,-3.05 4.65,-4.7q2.95,-1.65 6.6,-1.65l0,0q3.65,0 6.57,1.65q2.93,1.65 4.65,4.67q1.73,3.03 1.73,7.18l0,0q0,4.15 -1.7,7.22q-1.7,3.08 -4.63,4.78q-2.92,1.7 -6.62,1.7zm0,-4l0,0q3.95,0 6.15,-2.68q2.2,-2.67 2.2,-6.92l0,0q0,-2.6 -1.1,-4.78q-1.1,-2.17 -2.98,-3.5q-1.87,-1.32 -4.27,-1.32l0,0q-3.95,0 -6.15,2.6q-2.2,2.6 -2.2,6.9l0,0q0,2.6 1.1,4.82q1.1,2.23 2.97,3.55q1.88,1.33 4.28,1.33zm27.45,4l0,0q-2.25,0 -4.25,-0.95q-2,-0.95 -3.25,-3.08q-1.25,-2.12 -1.25,-5.67l0,0l0,-16.9l4.5,0l0,16.3q0,3.05 1.3,4.67q1.3,1.63 3.8,1.63l0,0q2.05,0 3.97,-0.83q1.93,-0.82 3.43,-2.22l0,0l0,-19.55l4.5,0l0,19.25q0,2.15 0.92,2.82q0.93,0.68 2.03,0.68l0,0l-0.95,3.5q-4.65,0 -5.75,-3.7l0,0q-1.75,1.8 -4.05,2.92q-2.3,1.13 -4.95,1.13zm26.2,-0.6l-4.5,0l0,-26l4.35,0l0,5.65q0.65,-1.65 1.75,-3.08q1.1,-1.42 2.75,-2.3q1.65,-0.87 3.85,-0.87l0,0q0.75,0 1.5,0.07q0.75,0.08 1.25,0.23l0,0l-1.35,4.65q-0.95,-0.4 -2.25,-0.4l0,0q-1.85,0 -3.53,1.05q-1.67,1.05 -2.75,3.25q-1.07,2.2 -1.07,5.6l0,0l0,12.15zm41.4,0.6l0,0q-3.7,0 -6.65,-1.73q-2.95,-1.72 -4.63,-4.8q-1.67,-3.07 -1.67,-7.07l0,0q0,-4.2 1.7,-7.25q1.7,-3.05 4.65,-4.7q2.95,-1.65 6.6,-1.65l0,0q3.65,0 6.57,1.65q2.93,1.65 4.65,4.67q1.73,3.03 1.73,7.18l0,0q0,4.15 -1.7,7.22q-1.7,3.08 -4.63,4.78q-2.92,1.7 -6.62,1.7zm0,-4l0,0q3.95,0 6.15,-2.68q2.2,-2.67 2.2,-6.92l0,0q0,-2.6 -1.1,-4.78q-1.1,-2.17 -2.98,-3.5q-1.87,-1.32 -4.27,-1.32l0,0q-3.95,0 -6.15,2.6q-2.2,2.6 -2.2,6.9l0,0q0,2.6 1.1,4.82q1.1,2.23 2.97,3.55q1.88,1.33 4.28,1.33zm28.85,3.4l-4.95,0l-8.2,-24.8l4.15,-1.45l6.7,21.15l6.1,-19.05l4.85,0l5.95,19.05l6.65,-21.15l4,1.45l-8.25,24.8l-4.95,0l-6,-19.35l-6.05,19.35zm35,0l-4.5,0l0,-26l4.35,0l0,4.35q1.4,-2.1 3.57,-3.53q2.18,-1.42 5.18,-1.42l0,0q4.4,0 6.57,2.65q2.18,2.65 2.18,7l0,0l0,16.95l-4.5,0l0,-16.45q0,-2.8 -1.33,-4.5q-1.32,-1.7 -3.67,-1.7l0,0q-2.3,0 -4.35,1.62q-2.05,1.63 -3.5,3.83l0,0l0,17.2zm48,0.6l0,0q-2.3,0 -4.15,-0.88q-1.85,-0.87 -2.93,-2.82q-1.07,-1.95 -1.07,-5.05l0,0l0,-28.85l4.5,0l0,28.4q0,2.7 1.12,4q1.13,1.3 3.13,1.3l0,0q0.95,0 1.87,-0.23q0.93,-0.22 1.58,-0.52l0,0l1.1,3.65q-0.9,0.4 -2.23,0.7q-1.32,0.3 -2.92,0.3zm19.6,0l0,0q-3.7,0 -6.65,-1.73q-2.95,-1.72 -4.63,-4.8q-1.67,-3.07 -1.67,-7.07l0,0q0,-4.2 1.7,-7.25q1.7,-3.05 4.65,-4.7q2.95,-1.65 6.6,-1.65l0,0q3.65,0 6.57,1.65q2.93,1.65 4.65,4.67q1.73,3.03 1.73,7.18l0,0q0,4.15 -1.7,7.22q-1.7,3.08 -4.63,4.78q-2.92,1.7 -6.62,1.7zm0,-4l0,0q3.95,0 6.15,-2.68q2.2,-2.67 2.2,-6.92l0,0q0,-2.6 -1.1,-4.78q-1.1,-2.17 -2.98,-3.5q-1.87,-1.32 -4.27,-1.32l0,0q-3.95,0 -6.15,2.6q-2.2,2.6 -2.2,6.9l0,0q0,2.6 1.1,4.82q1.1,2.23 2.97,3.55q1.88,1.33 4.28,1.33zm28.5,15l0,0q-2.3,0 -4.48,-0.55q-2.17,-0.55 -3.87,-1.65l0,0l1.65,-3.9q1.2,0.95 2.8,1.58q1.6,0.62 3.9,0.62l0,0q3.55,0 5.57,-1.87q2.03,-1.88 2.03,-5.98l0,0l0,-3.2q-1,1.2 -2.88,2.28q-1.87,1.07 -4.47,1.07l0,0q-2.95,0 -5.6,-1.53q-2.65,-1.52 -4.3,-4.47q-1.65,-2.95 -1.65,-7.1l0,0q0,-3.9 1.62,-6.95q1.63,-3.05 4.38,-4.8q2.75,-1.75 6.05,-1.75l0,0q2.2,0 4,0.75q1.8,0.75 3.1,1.85l0,0l0,-2l4.1,0l0,25.4q0,4.3 -1.5,7q-1.5,2.7 -4.18,3.95q-2.67,1.25 -6.27,1.25zm1.25,-15.6l0,0q2,0 3.6,-0.9q1.6,-0.9 2.6,-2.1l0,0l0,-13.6q-1.1,-0.8 -2.65,-1.45q-1.55,-0.65 -3.6,-0.65l0,0q-2.05,0 -3.85,1.1q-1.8,1.1 -2.93,3.17q-1.12,2.08 -1.12,5.08l0,0q0,2.85 1.12,4.95q1.13,2.1 2.93,3.25q1.8,1.15 3.9,1.15zm29.4,4.6l0,0q-3.7,0 -6.65,-1.73q-2.95,-1.72 -4.63,-4.8q-1.67,-3.07 -1.67,-7.07l0,0q0,-4.2 1.7,-7.25q1.7,-3.05 4.65,-4.7q2.95,-1.65 6.6,-1.65l0,0q3.65,0 6.57,1.65q2.93,1.65 4.65,4.67q1.73,3.03 1.73,7.18l0,0q0,4.15 -1.7,7.22q-1.7,3.08 -4.63,4.78q-2.92,1.7 -6.62,1.7zm0,-4l0,0q3.95,0 6.15,-2.68q2.2,-2.67 2.2,-6.92l0,0q0,-2.6 -1.1,-4.78q-1.1,-2.17 -2.98,-3.5q-1.87,-1.32 -4.27,-1.32l0,0q-3.95,0 -6.15,2.6q-2.2,2.6 -2.2,6.9l0,0q0,2.6 1.1,4.82q1.1,2.23 2.97,3.55q1.88,1.33 4.28,1.33z" data-fill-palette-color="quaternary" fill="#000000" id="svg_31" transform="matrix(1,0,0,1,0,0)"/>
                </svg>
               </g>
              </svg>
             </g>
            </svg>
           </g>
          </svg>
         </g>
        </svg>
       </g>

      </svg>
     </g>
     <rect fill="none" height="106.46" id="svg_46" width="356.12"/>
    </g>
   </svg>
  </g>
 </g>
</svg>